<svg width="98" height="32" viewBox="0 0 98 32" fill="none" xmlns="http://www.w3.org/2000/svg">
<path d="M8.62 10.4C8.62 10.86 8.58 11.26 8.5 11.6H5.5C5.42 11.26 5.38 10.86 5.38 10.4C5.38 9.92 5.42 9.52 5.5 9.2H8.5C8.58 9.52 8.62 9.92 8.62 10.4ZM5.5 21.2C5.58 21.52 5.62 21.92 5.62 22.4C5.62 22.86 5.58 23.26 5.5 23.6H4C3.92 23.26 3.88 22.86 3.88 22.4C3.88 21.92 3.92 21.52 4 21.2H3.1C3.02 20.86 2.98 20.46 2.98 20C2.98 19.52 3.02 19.12 3.1 18.8C3.02 18.46 2.98 18.06 2.98 17.6C2.98 17.12 3.02 16.72 3.1 16.4C3.02 16.06 2.98 15.66 2.98 15.2C2.98 14.72 3.02 14.32 3.1 14H4C3.92 13.66 3.88 13.26 3.88 12.8C3.88 12.32 3.92 11.92 4 11.6H5.5C5.58 11.92 5.62 12.32 5.62 12.8C5.62 13.26 5.58 13.66 5.5 14C5.58 14.32 5.62 14.72 5.62 15.2C5.62 15.66 5.58 16.06 5.5 16.4C5.58 16.72 5.62 17.12 5.62 17.6C5.62 18.06 5.58 18.46 5.5 18.8C5.58 19.12 5.62 19.52 5.62 20C5.62 20.46 5.58 20.86 5.5 21.2ZM10.9 16.4C10.98 16.72 11.02 17.12 11.02 17.6C11.02 18.06 10.98 18.46 10.9 18.8C10.98 19.12 11.02 19.52 11.02 20C11.02 20.46 10.98 20.86 10.9 21.2H10C10.08 21.52 10.12 21.92 10.12 22.4C10.12 22.86 10.08 23.26 10 23.6H8.5C8.42 23.26 8.38 22.86 8.38 22.4C8.38 21.92 8.42 21.52 8.5 21.2C8.42 20.86 8.38 20.46 8.38 20C8.38 19.52 8.42 19.12 8.5 18.8C8.42 18.46 8.38 18.06 8.38 17.6C8.38 17.12 8.42 16.72 8.5 16.4C8.42 16.06 8.38 15.66 8.38 15.2C8.38 14.72 8.42 14.32 8.5 14C8.42 13.66 8.38 13.26 8.38 12.8C8.38 12.32 8.42 11.92 8.5 11.6H10C10.08 11.92 10.12 12.32 10.12 12.8C10.12 13.26 10.08 13.66 10 14H10.9C10.98 14.32 11.02 14.72 11.02 15.2C11.02 15.66 10.98 16.06 10.9 16.4ZM5.38 24.8C5.38 24.32 5.42 23.92 5.5 23.6H8.5C8.58 23.92 8.62 24.32 8.62 24.8C8.62 25.26 8.58 25.66 8.5 26H5.5C5.42 25.66 5.38 25.26 5.38 24.8ZM20.6317 10.4C20.6317 10.86 20.5917 11.26 20.5117 11.6H17.5117C17.4317 11.26 17.3917 10.86 17.3917 10.4C17.3917 9.92 17.4317 9.52 17.5117 9.2H20.5117C20.5917 9.52 20.6317 9.92 20.6317 10.4ZM17.5117 21.2C17.5917 21.52 17.6317 21.92 17.6317 22.4C17.6317 22.86 17.5917 23.26 17.5117 23.6H16.0117C15.9317 23.26 15.8917 22.86 15.8917 22.4C15.8917 21.92 15.9317 21.52 16.0117 21.2H15.1117C15.0317 20.86 14.9917 20.46 14.9917 20C14.9917 19.52 15.0317 19.12 15.1117 18.8C15.0317 18.46 14.9917 18.06 14.9917 17.6C14.9917 17.12 15.0317 16.72 15.1117 16.4C15.0317 16.06 14.9917 15.66 14.9917 15.2C14.9917 14.72 15.0317 14.32 15.1117 14H16.0117C15.9317 13.66 15.8917 13.26 15.8917 12.8C15.8917 12.32 15.9317 11.92 16.0117 11.6H17.5117C17.5917 11.92 17.6317 12.32 17.6317 12.8C17.6317 13.26 17.5917 13.66 17.5117 14C17.5917 14.32 17.6317 14.72 17.6317 15.2C17.6317 15.66 17.5917 16.06 17.5117 16.4C17.5917 16.72 17.6317 17.12 17.6317 17.6C17.6317 18.06 17.5917 18.46 17.5117 18.8C17.5917 19.12 17.6317 19.52 17.6317 20C17.6317 20.46 17.5917 20.86 17.5117 21.2ZM22.9117 16.4C22.9917 16.72 23.0317 17.12 23.0317 17.6C23.0317 18.06 22.9917 18.46 22.9117 18.8C22.9917 19.12 23.0317 19.52 23.0317 20C23.0317 20.46 22.9917 20.86 22.9117 21.2H22.0117C22.0917 21.52 22.1317 21.92 22.1317 22.4C22.1317 22.86 22.0917 23.26 22.0117 23.6H20.5117C20.4317 23.26 20.3917 22.86 20.3917 22.4C20.3917 21.92 20.4317 21.52 20.5117 21.2C20.4317 20.86 20.3917 20.46 20.3917 20C20.3917 19.52 20.4317 19.12 20.5117 18.8C20.4317 18.46 20.3917 18.06 20.3917 17.6C20.3917 17.12 20.4317 16.72 20.5117 16.4C20.4317 16.06 20.3917 15.66 20.3917 15.2C20.3917 14.72 20.4317 14.32 20.5117 14C20.4317 13.66 20.3917 13.26 20.3917 12.8C20.3917 12.32 20.4317 11.92 20.5117 11.6H22.0117C22.0917 11.92 22.1317 12.32 22.1317 12.8C22.1317 13.26 22.0917 13.66 22.0117 14H22.9117C22.9917 14.32 23.0317 14.72 23.0317 15.2C23.0317 15.66 22.9917 16.06 22.9117 16.4ZM17.3917 24.8C17.3917 24.32 17.4317 23.92 17.5117 23.6H20.5117C20.5917 23.92 20.6317 24.32 20.6317 24.8C20.6317 25.26 20.5917 25.66 20.5117 26H17.5117C17.4317 25.66 17.3917 25.26 17.3917 24.8ZM32.6434 10.4C32.6434 10.86 32.6034 11.26 32.5234 11.6H29.5234C29.4434 11.26 29.4034 10.86 29.4034 10.4C29.4034 9.92 29.4434 9.52 29.5234 9.2H32.5234C32.6034 9.52 32.6434 9.92 32.6434 10.4ZM29.5234 21.2C29.6034 21.52 29.6434 21.92 29.6434 22.4C29.6434 22.86 29.6034 23.26 29.5234 23.6H28.0234C27.9434 23.26 27.9034 22.86 27.9034 22.4C27.9034 21.92 27.9434 21.52 28.0234 21.2H27.1234C27.0434 20.86 27.0034 20.46 27.0034 20C27.0034 19.52 27.0434 19.12 27.1234 18.8C27.0434 18.46 27.0034 18.06 27.0034 17.6C27.0034 17.12 27.0434 16.72 27.1234 16.4C27.0434 16.06 27.0034 15.66 27.0034 15.2C27.0034 14.72 27.0434 14.32 27.1234 14H28.0234C27.9434 13.66 27.9034 13.26 27.9034 12.8C27.9034 12.32 27.9434 11.92 28.0234 11.6H29.5234C29.6034 11.92 29.6434 12.32 29.6434 12.8C29.6434 13.26 29.6034 13.66 29.5234 14C29.6034 14.32 29.6434 14.72 29.6434 15.2C29.6434 15.66 29.6034 16.06 29.5234 16.4C29.6034 16.72 29.6434 17.12 29.6434 17.6C29.6434 18.06 29.6034 18.46 29.5234 18.8C29.6034 19.12 29.6434 19.52 29.6434 20C29.6434 20.46 29.6034 20.86 29.5234 21.2ZM34.9234 16.4C35.0034 16.72 35.0434 17.12 35.0434 17.6C35.0434 18.06 35.0034 18.46 34.9234 18.8C35.0034 19.12 35.0434 19.52 35.0434 20C35.0434 20.46 35.0034 20.86 34.9234 21.2H34.0234C34.1034 21.52 34.1434 21.92 34.1434 22.4C34.1434 22.86 34.1034 23.26 34.0234 23.6H32.5234C32.4434 23.26 32.4034 22.86 32.4034 22.4C32.4034 21.92 32.4434 21.52 32.5234 21.2C32.4434 20.86 32.4034 20.46 32.4034 20C32.4034 19.52 32.4434 19.12 32.5234 18.8C32.4434 18.46 32.4034 18.06 32.4034 17.6C32.4034 17.12 32.4434 16.72 32.5234 16.4C32.4434 16.06 32.4034 15.66 32.4034 15.2C32.4034 14.72 32.4434 14.32 32.5234 14C32.4434 13.66 32.4034 13.26 32.4034 12.8C32.4034 12.32 32.4434 11.92 32.5234 11.6H34.0234C34.1034 11.92 34.1434 12.32 34.1434 12.8C34.1434 13.26 34.1034 13.66 34.0234 14H34.9234C35.0034 14.32 35.0434 14.72 35.0434 15.2C35.0434 15.66 35.0034 16.06 34.9234 16.4ZM29.4034 24.8C29.4034 24.32 29.4434 23.92 29.5234 23.6H32.5234C32.6034 23.92 32.6434 24.32 32.6434 24.8C32.6434 25.26 32.6034 25.66 32.5234 26H29.5234C29.4434 25.66 29.4034 25.26 29.4034 24.8ZM44.6552 10.4C44.6552 10.86 44.6152 11.26 44.5352 11.6H41.5352C41.4552 11.26 41.4152 10.86 41.4152 10.4C41.4152 9.92 41.4552 9.52 41.5352 9.2H44.5352C44.6152 9.52 44.6552 9.92 44.6552 10.4ZM41.5352 21.2C41.6152 21.52 41.6552 21.92 41.6552 22.4C41.6552 22.86 41.6152 23.26 41.5352 23.6H40.0352C39.9552 23.26 39.9152 22.86 39.9152 22.4C39.9152 21.92 39.9552 21.52 40.0352 21.2H39.1352C39.0552 20.86 39.0152 20.46 39.0152 20C39.0152 19.52 39.0552 19.12 39.1352 18.8C39.0552 18.46 39.0152 18.06 39.0152 17.6C39.0152 17.12 39.0552 16.72 39.1352 16.4C39.0552 16.06 39.0152 15.66 39.0152 15.2C39.0152 14.72 39.0552 14.32 39.1352 14H40.0352C39.9552 13.66 39.9152 13.26 39.9152 12.8C39.9152 12.32 39.9552 11.92 40.0352 11.6H41.5352C41.6152 11.92 41.6552 12.32 41.6552 12.8C41.6552 13.26 41.6152 13.66 41.5352 14C41.6152 14.32 41.6552 14.72 41.6552 15.2C41.6552 15.66 41.6152 16.06 41.5352 16.4C41.6152 16.72 41.6552 17.12 41.6552 17.6C41.6552 18.06 41.6152 18.46 41.5352 18.8C41.6152 19.12 41.6552 19.52 41.6552 20C41.6552 20.46 41.6152 20.86 41.5352 21.2ZM46.9352 16.4C47.0152 16.72 47.0552 17.12 47.0552 17.6C47.0552 18.06 47.0152 18.46 46.9352 18.8C47.0152 19.12 47.0552 19.52 47.0552 20C47.0552 20.46 47.0152 20.86 46.9352 21.2H46.0352C46.1152 21.52 46.1552 21.92 46.1552 22.4C46.1552 22.86 46.1152 23.26 46.0352 23.6H44.5352C44.4552 23.26 44.4152 22.86 44.4152 22.4C44.4152 21.92 44.4552 21.52 44.5352 21.2C44.4552 20.86 44.4152 20.46 44.4152 20C44.4152 19.52 44.4552 19.12 44.5352 18.8C44.4552 18.46 44.4152 18.06 44.4152 17.6C44.4152 17.12 44.4552 16.72 44.5352 16.4C44.4552 16.06 44.4152 15.66 44.4152 15.2C44.4152 14.72 44.4552 14.32 44.5352 14C44.4552 13.66 44.4152 13.26 44.4152 12.8C44.4152 12.32 44.4552 11.92 44.5352 11.6H46.0352C46.1152 11.92 46.1552 12.32 46.1552 12.8C46.1552 13.26 46.1152 13.66 46.0352 14H46.9352C47.0152 14.32 47.0552 14.72 47.0552 15.2C47.0552 15.66 47.0152 16.06 46.9352 16.4ZM41.4152 24.8C41.4152 24.32 41.4552 23.92 41.5352 23.6H44.5352C44.6152 23.92 44.6552 24.32 44.6552 24.8C44.6552 25.26 44.6152 25.66 44.5352 26H41.5352C41.4552 25.66 41.4152 25.26 41.4152 24.8ZM56.6669 10.4C56.6669 10.86 56.6269 11.26 56.5469 11.6H53.5469C53.4669 11.26 53.4269 10.86 53.4269 10.4C53.4269 9.92 53.4669 9.52 53.5469 9.2H56.5469C56.6269 9.52 56.6669 9.92 56.6669 10.4ZM53.5469 21.2C53.6269 21.52 53.6669 21.92 53.6669 22.4C53.6669 22.86 53.6269 23.26 53.5469 23.6H52.0469C51.9669 23.26 51.9269 22.86 51.9269 22.4C51.9269 21.92 51.9669 21.52 52.0469 21.2H51.1469C51.0669 20.86 51.0269 20.46 51.0269 20C51.0269 19.52 51.0669 19.12 51.1469 18.8C51.0669 18.46 51.0269 18.06 51.0269 17.6C51.0269 17.12 51.0669 16.72 51.1469 16.4C51.0669 16.06 51.0269 15.66 51.0269 15.2C51.0269 14.72 51.0669 14.32 51.1469 14H52.0469C51.9669 13.66 51.9269 13.26 51.9269 12.8C51.9269 12.32 51.9669 11.92 52.0469 11.6H53.5469C53.6269 11.92 53.6669 12.32 53.6669 12.8C53.6669 13.26 53.6269 13.66 53.5469 14C53.6269 14.32 53.6669 14.72 53.6669 15.2C53.6669 15.66 53.6269 16.06 53.5469 16.4C53.6269 16.72 53.6669 17.12 53.6669 17.6C53.6669 18.06 53.6269 18.46 53.5469 18.8C53.6269 19.12 53.6669 19.52 53.6669 20C53.6669 20.46 53.6269 20.86 53.5469 21.2ZM58.9469 16.4C59.0269 16.72 59.0669 17.12 59.0669 17.6C59.0669 18.06 59.0269 18.46 58.9469 18.8C59.0269 19.12 59.0669 19.52 59.0669 20C59.0669 20.46 59.0269 20.86 58.9469 21.2H58.0469C58.1269 21.52 58.1669 21.92 58.1669 22.4C58.1669 22.86 58.1269 23.26 58.0469 23.6H56.5469C56.4669 23.26 56.4269 22.86 56.4269 22.4C56.4269 21.92 56.4669 21.52 56.5469 21.2C56.4669 20.86 56.4269 20.46 56.4269 20C56.4269 19.52 56.4669 19.12 56.5469 18.8C56.4669 18.46 56.4269 18.06 56.4269 17.6C56.4269 17.12 56.4669 16.72 56.5469 16.4C56.4669 16.06 56.4269 15.66 56.4269 15.2C56.4269 14.72 56.4669 14.32 56.5469 14C56.4669 13.66 56.4269 13.26 56.4269 12.8C56.4269 12.32 56.4669 11.92 56.5469 11.6H58.0469C58.1269 11.92 58.1669 12.32 58.1669 12.8C58.1669 13.26 58.1269 13.66 58.0469 14H58.9469C59.0269 14.32 59.0669 14.72 59.0669 15.2C59.0669 15.66 59.0269 16.06 58.9469 16.4ZM53.4269 24.8C53.4269 24.32 53.4669 23.92 53.5469 23.6H56.5469C56.6269 23.92 56.6669 24.32 56.6669 24.8C56.6669 25.26 56.6269 25.66 56.5469 26H53.5469C53.4669 25.66 53.4269 25.26 53.4269 24.8ZM68.6786 10.4C68.6786 10.86 68.6386 11.26 68.5586 11.6H65.5586C65.4786 11.26 65.4386 10.86 65.4386 10.4C65.4386 9.92 65.4786 9.52 65.5586 9.2H68.5586C68.6386 9.52 68.6786 9.92 68.6786 10.4ZM65.5586 21.2C65.6386 21.52 65.6786 21.92 65.6786 22.4C65.6786 22.86 65.6386 23.26 65.5586 23.6H64.0586C63.9786 23.26 63.9386 22.86 63.9386 22.4C63.9386 21.92 63.9786 21.52 64.0586 21.2H63.1586C63.0786 20.86 63.0386 20.46 63.0386 20C63.0386 19.52 63.0786 19.12 63.1586 18.8C63.0786 18.46 63.0386 18.06 63.0386 17.6C63.0386 17.12 63.0786 16.72 63.1586 16.4C63.0786 16.06 63.0386 15.66 63.0386 15.2C63.0386 14.72 63.0786 14.32 63.1586 14H64.0586C63.9786 13.66 63.9386 13.26 63.9386 12.8C63.9386 12.32 63.9786 11.92 64.0586 11.6H65.5586C65.6386 11.92 65.6786 12.32 65.6786 12.8C65.6786 13.26 65.6386 13.66 65.5586 14C65.6386 14.32 65.6786 14.72 65.6786 15.2C65.6786 15.66 65.6386 16.06 65.5586 16.4C65.6386 16.72 65.6786 17.12 65.6786 17.6C65.6786 18.06 65.6386 18.46 65.5586 18.8C65.6386 19.12 65.6786 19.52 65.6786 20C65.6786 20.46 65.6386 20.86 65.5586 21.2ZM70.9586 16.4C71.0386 16.72 71.0786 17.12 71.0786 17.6C71.0786 18.06 71.0386 18.46 70.9586 18.8C71.0386 19.12 71.0786 19.52 71.0786 20C71.0786 20.46 71.0386 20.86 70.9586 21.2H70.0586C70.1386 21.52 70.1786 21.92 70.1786 22.4C70.1786 22.86 70.1386 23.26 70.0586 23.6H68.5586C68.4786 23.26 68.4386 22.86 68.4386 22.4C68.4386 21.92 68.4786 21.52 68.5586 21.2C68.4786 20.86 68.4386 20.46 68.4386 20C68.4386 19.52 68.4786 19.12 68.5586 18.8C68.4786 18.46 68.4386 18.06 68.4386 17.6C68.4386 17.12 68.4786 16.72 68.5586 16.4C68.4786 16.06 68.4386 15.66 68.4386 15.2C68.4386 14.72 68.4786 14.32 68.5586 14C68.4786 13.66 68.4386 13.26 68.4386 12.8C68.4386 12.32 68.4786 11.92 68.5586 11.6H70.0586C70.1386 11.92 70.1786 12.32 70.1786 12.8C70.1786 13.26 70.1386 13.66 70.0586 14H70.9586C71.0386 14.32 71.0786 14.72 71.0786 15.2C71.0786 15.66 71.0386 16.06 70.9586 16.4ZM65.4386 24.8C65.4386 24.32 65.4786 23.92 65.5586 23.6H68.5586C68.6386 23.92 68.6786 24.32 68.6786 24.8C68.6786 25.26 68.6386 25.66 68.5586 26H65.5586C65.4786 25.66 65.4386 25.26 65.4386 24.8ZM80.6903 10.4C80.6903 10.86 80.6503 11.26 80.5703 11.6H77.5703C77.4903 11.26 77.4503 10.86 77.4503 10.4C77.4503 9.92 77.4903 9.52 77.5703 9.2H80.5703C80.6503 9.52 80.6903 9.92 80.6903 10.4ZM77.5703 21.2C77.6503 21.52 77.6903 21.92 77.6903 22.4C77.6903 22.86 77.6503 23.26 77.5703 23.6H76.0703C75.9903 23.26 75.9503 22.86 75.9503 22.4C75.9503 21.92 75.9903 21.52 76.0703 21.2H75.1703C75.0903 20.86 75.0503 20.46 75.0503 20C75.0503 19.52 75.0903 19.12 75.1703 18.8C75.0903 18.46 75.0503 18.06 75.0503 17.6C75.0503 17.12 75.0903 16.72 75.1703 16.4C75.0903 16.06 75.0503 15.66 75.0503 15.2C75.0503 14.72 75.0903 14.32 75.1703 14H76.0703C75.9903 13.66 75.9503 13.26 75.9503 12.8C75.9503 12.32 75.9903 11.92 76.0703 11.6H77.5703C77.6503 11.92 77.6903 12.32 77.6903 12.8C77.6903 13.26 77.6503 13.66 77.5703 14C77.6503 14.32 77.6903 14.72 77.6903 15.2C77.6903 15.66 77.6503 16.06 77.5703 16.4C77.6503 16.72 77.6903 17.12 77.6903 17.6C77.6903 18.06 77.6503 18.46 77.5703 18.8C77.6503 19.12 77.6903 19.52 77.6903 20C77.6903 20.46 77.6503 20.86 77.5703 21.2ZM82.9703 16.4C83.0503 16.72 83.0903 17.12 83.0903 17.6C83.0903 18.06 83.0503 18.46 82.9703 18.8C83.0503 19.12 83.0903 19.52 83.0903 20C83.0903 20.46 83.0503 20.86 82.9703 21.2H82.0703C82.1503 21.52 82.1903 21.92 82.1903 22.4C82.1903 22.86 82.1503 23.26 82.0703 23.6H80.5703C80.4903 23.26 80.4503 22.86 80.4503 22.4C80.4503 21.92 80.4903 21.52 80.5703 21.2C80.4903 20.86 80.4503 20.46 80.4503 20C80.4503 19.52 80.4903 19.12 80.5703 18.8C80.4903 18.46 80.4503 18.06 80.4503 17.6C80.4503 17.12 80.4903 16.72 80.5703 16.4C80.4903 16.06 80.4503 15.66 80.4503 15.2C80.4503 14.72 80.4903 14.32 80.5703 14C80.4903 13.66 80.4503 13.26 80.4503 12.8C80.4503 12.32 80.4903 11.92 80.5703 11.6H82.0703C82.1503 11.92 82.1903 12.32 82.1903 12.8C82.1903 13.26 82.1503 13.66 82.0703 14H82.9703C83.0503 14.32 83.0903 14.72 83.0903 15.2C83.0903 15.66 83.0503 16.06 82.9703 16.4ZM77.4503 24.8C77.4503 24.32 77.4903 23.92 77.5703 23.6H80.5703C80.6503 23.92 80.6903 24.32 80.6903 24.8C80.6903 25.26 80.6503 25.66 80.5703 26H77.5703C77.4903 25.66 77.4503 25.26 77.4503 24.8ZM92.702 10.4C92.702 10.86 92.662 11.26 92.582 11.6H89.582C89.502 11.26 89.462 10.86 89.462 10.4C89.462 9.92 89.502 9.52 89.582 9.2H92.582C92.662 9.52 92.702 9.92 92.702 10.4ZM89.582 21.2C89.662 21.52 89.702 21.92 89.702 22.4C89.702 22.86 89.662 23.26 89.582 23.6H88.082C88.002 23.26 87.962 22.86 87.962 22.4C87.962 21.92 88.002 21.52 88.082 21.2H87.182C87.102 20.86 87.062 20.46 87.062 20C87.062 19.52 87.102 19.12 87.182 18.8C87.102 18.46 87.062 18.06 87.062 17.6C87.062 17.12 87.102 16.72 87.182 16.4C87.102 16.06 87.062 15.66 87.062 15.2C87.062 14.72 87.102 14.32 87.182 14H88.082C88.002 13.66 87.962 13.26 87.962 12.8C87.962 12.32 88.002 11.92 88.082 11.6H89.582C89.662 11.92 89.702 12.32 89.702 12.8C89.702 13.26 89.662 13.66 89.582 14C89.662 14.32 89.702 14.72 89.702 15.2C89.702 15.66 89.662 16.06 89.582 16.4C89.662 16.72 89.702 17.12 89.702 17.6C89.702 18.06 89.662 18.46 89.582 18.8C89.662 19.12 89.702 19.52 89.702 20C89.702 20.46 89.662 20.86 89.582 21.2ZM94.982 16.4C95.062 16.72 95.102 17.12 95.102 17.6C95.102 18.06 95.062 18.46 94.982 18.8C95.062 19.12 95.102 19.52 95.102 20C95.102 20.46 95.062 20.86 94.982 21.2H94.082C94.162 21.52 94.202 21.92 94.202 22.4C94.202 22.86 94.162 23.26 94.082 23.6H92.582C92.502 23.26 92.462 22.86 92.462 22.4C92.462 21.92 92.502 21.52 92.582 21.2C92.502 20.86 92.462 20.46 92.462 20C92.462 19.52 92.502 19.12 92.582 18.8C92.502 18.46 92.462 18.06 92.462 17.6C92.462 17.12 92.502 16.72 92.582 16.4C92.502 16.06 92.462 15.66 92.462 15.2C92.462 14.72 92.502 14.32 92.582 14C92.502 13.66 92.462 13.26 92.462 12.8C92.462 12.32 92.502 11.92 92.582 11.6H94.082C94.162 11.92 94.202 12.32 94.202 12.8C94.202 13.26 94.162 13.66 94.082 14H94.982C95.062 14.32 95.102 14.72 95.102 15.2C95.102 15.66 95.062 16.06 94.982 16.4ZM89.462 24.8C89.462 24.32 89.502 23.92 89.582 23.6H92.582C92.662 23.92 92.702 24.32 92.702 24.8C92.702 25.26 92.662 25.66 92.582 26H89.582C89.502 25.66 89.462 25.26 89.462 24.8Z" fill="black"/>
<path d="M7.62 8.4C7.62 8.86 7.58 9.26 7.5 9.6H4.5C4.42 9.26 4.38 8.86 4.38 8.4C4.38 7.92 4.42 7.52 4.5 7.2H7.5C7.58 7.52 7.62 7.92 7.62 8.4ZM4.5 19.2C4.58 19.52 4.62 19.92 4.62 20.4C4.62 20.86 4.58 21.26 4.5 21.6H3C2.92 21.26 2.88 20.86 2.88 20.4C2.88 19.92 2.92 19.52 3 19.2H2.1C2.02 18.86 1.98 18.46 1.98 18C1.98 17.52 2.02 17.12 2.1 16.8C2.02 16.46 1.98 16.06 1.98 15.6C1.98 15.12 2.02 14.72 2.1 14.4C2.02 14.06 1.98 13.66 1.98 13.2C1.98 12.72 2.02 12.32 2.1 12H3C2.92 11.66 2.88 11.26 2.88 10.8C2.88 10.32 2.92 9.92 3 9.6H4.5C4.58 9.92 4.62 10.32 4.62 10.8C4.62 11.26 4.58 11.66 4.5 12C4.58 12.32 4.62 12.72 4.62 13.2C4.62 13.66 4.58 14.06 4.5 14.4C4.58 14.72 4.62 15.12 4.62 15.6C4.62 16.06 4.58 16.46 4.5 16.8C4.58 17.12 4.62 17.52 4.62 18C4.62 18.46 4.58 18.86 4.5 19.2ZM9.9 14.4C9.98 14.72 10.02 15.12 10.02 15.6C10.02 16.06 9.98 16.46 9.9 16.8C9.98 17.12 10.02 17.52 10.02 18C10.02 18.46 9.98 18.86 9.9 19.2H9C9.08 19.52 9.12 19.92 9.12 20.4C9.12 20.86 9.08 21.26 9 21.6H7.5C7.42 21.26 7.38 20.86 7.38 20.4C7.38 19.92 7.42 19.52 7.5 19.2C7.42 18.86 7.38 18.46 7.38 18C7.38 17.52 7.42 17.12 7.5 16.8C7.42 16.46 7.38 16.06 7.38 15.6C7.38 15.12 7.42 14.72 7.5 14.4C7.42 14.06 7.38 13.66 7.38 13.2C7.38 12.72 7.42 12.32 7.5 12C7.42 11.66 7.38 11.26 7.38 10.8C7.38 10.32 7.42 9.92 7.5 9.6H9C9.08 9.92 9.12 10.32 9.12 10.8C9.12 11.26 9.08 11.66 9 12H9.9C9.98 12.32 10.02 12.72 10.02 13.2C10.02 13.66 9.98 14.06 9.9 14.4ZM4.38 22.8C4.38 22.32 4.42 21.92 4.5 21.6H7.5C7.58 21.92 7.62 22.32 7.62 22.8C7.62 23.26 7.58 23.66 7.5 24H4.5C4.42 23.66 4.38 23.26 4.38 22.8ZM19.6317 8.4C19.6317 8.86 19.5917 9.26 19.5117 9.6H16.5117C16.4317 9.26 16.3917 8.86 16.3917 8.4C16.3917 7.92 16.4317 7.52 16.5117 7.2H19.5117C19.5917 7.52 19.6317 7.92 19.6317 8.4ZM16.5117 19.2C16.5917 19.52 16.6317 19.92 16.6317 20.4C16.6317 20.86 16.5917 21.26 16.5117 21.6H15.0117C14.9317 21.26 14.8917 20.86 14.8917 20.4C14.8917 19.92 14.9317 19.52 15.0117 19.2H14.1117C14.0317 18.86 13.9917 18.46 13.9917 18C13.9917 17.52 14.0317 17.12 14.1117 16.8C14.0317 16.46 13.9917 16.06 13.9917 15.6C13.9917 15.12 14.0317 14.72 14.1117 14.4C14.0317 14.06 13.9917 13.66 13.9917 13.2C13.9917 12.72 14.0317 12.32 14.1117 12H15.0117C14.9317 11.66 14.8917 11.26 14.8917 10.8C14.8917 10.32 14.9317 9.92 15.0117 9.6H16.5117C16.5917 9.92 16.6317 10.32 16.6317 10.8C16.6317 11.26 16.5917 11.66 16.5117 12C16.5917 12.32 16.6317 12.72 16.6317 13.2C16.6317 13.66 16.5917 14.06 16.5117 14.4C16.5917 14.72 16.6317 15.12 16.6317 15.6C16.6317 16.06 16.5917 16.46 16.5117 16.8C16.5917 17.12 16.6317 17.52 16.6317 18C16.6317 18.46 16.5917 18.86 16.5117 19.2ZM21.9117 14.4C21.9917 14.72 22.0317 15.12 22.0317 15.6C22.0317 16.06 21.9917 16.46 21.9117 16.8C21.9917 17.12 22.0317 17.52 22.0317 18C22.0317 18.46 21.9917 18.86 21.9117 19.2H21.0117C21.0917 19.52 21.1317 19.92 21.1317 20.4C21.1317 20.86 21.0917 21.26 21.0117 21.6H19.5117C19.4317 21.26 19.3917 20.86 19.3917 20.4C19.3917 19.92 19.4317 19.52 19.5117 19.2C19.4317 18.86 19.3917 18.46 19.3917 18C19.3917 17.52 19.4317 17.12 19.5117 16.8C19.4317 16.46 19.3917 16.06 19.3917 15.6C19.3917 15.12 19.4317 14.72 19.5117 14.4C19.4317 14.06 19.3917 13.66 19.3917 13.2C19.3917 12.72 19.4317 12.32 19.5117 12C19.4317 11.66 19.3917 11.26 19.3917 10.8C19.3917 10.32 19.4317 9.92 19.5117 9.6H21.0117C21.0917 9.92 21.1317 10.32 21.1317 10.8C21.1317 11.26 21.0917 11.66 21.0117 12H21.9117C21.9917 12.32 22.0317 12.72 22.0317 13.2C22.0317 13.66 21.9917 14.06 21.9117 14.4ZM16.3917 22.8C16.3917 22.32 16.4317 21.92 16.5117 21.6H19.5117C19.5917 21.92 19.6317 22.32 19.6317 22.8C19.6317 23.26 19.5917 23.66 19.5117 24H16.5117C16.4317 23.66 16.3917 23.26 16.3917 22.8ZM31.6434 8.4C31.6434 8.86 31.6034 9.26 31.5234 9.6H28.5234C28.4434 9.26 28.4034 8.86 28.4034 8.4C28.4034 7.92 28.4434 7.52 28.5234 7.2H31.5234C31.6034 7.52 31.6434 7.92 31.6434 8.4ZM28.5234 19.2C28.6034 19.52 28.6434 19.92 28.6434 20.4C28.6434 20.86 28.6034 21.26 28.5234 21.6H27.0234C26.9434 21.26 26.9034 20.86 26.9034 20.4C26.9034 19.92 26.9434 19.52 27.0234 19.2H26.1234C26.0434 18.86 26.0034 18.46 26.0034 18C26.0034 17.52 26.0434 17.12 26.1234 16.8C26.0434 16.46 26.0034 16.06 26.0034 15.6C26.0034 15.12 26.0434 14.72 26.1234 14.4C26.0434 14.06 26.0034 13.66 26.0034 13.2C26.0034 12.72 26.0434 12.32 26.1234 12H27.0234C26.9434 11.66 26.9034 11.26 26.9034 10.8C26.9034 10.32 26.9434 9.92 27.0234 9.6H28.5234C28.6034 9.92 28.6434 10.32 28.6434 10.8C28.6434 11.26 28.6034 11.66 28.5234 12C28.6034 12.32 28.6434 12.72 28.6434 13.2C28.6434 13.66 28.6034 14.06 28.5234 14.4C28.6034 14.72 28.6434 15.12 28.6434 15.6C28.6434 16.06 28.6034 16.46 28.5234 16.8C28.6034 17.12 28.6434 17.52 28.6434 18C28.6434 18.46 28.6034 18.86 28.5234 19.2ZM33.9234 14.4C34.0034 14.72 34.0434 15.12 34.0434 15.6C34.0434 16.06 34.0034 16.46 33.9234 16.8C34.0034 17.12 34.0434 17.52 34.0434 18C34.0434 18.46 34.0034 18.86 33.9234 19.2H33.0234C33.1034 19.52 33.1434 19.92 33.1434 20.4C33.1434 20.86 33.1034 21.26 33.0234 21.6H31.5234C31.4434 21.26 31.4034 20.86 31.4034 20.4C31.4034 19.92 31.4434 19.52 31.5234 19.2C31.4434 18.86 31.4034 18.46 31.4034 18C31.4034 17.52 31.4434 17.12 31.5234 16.8C31.4434 16.46 31.4034 16.06 31.4034 15.6C31.4034 15.12 31.4434 14.72 31.5234 14.4C31.4434 14.06 31.4034 13.66 31.4034 13.2C31.4034 12.72 31.4434 12.32 31.5234 12C31.4434 11.66 31.4034 11.26 31.4034 10.8C31.4034 10.32 31.4434 9.92 31.5234 9.6H33.0234C33.1034 9.92 33.1434 10.32 33.1434 10.8C33.1434 11.26 33.1034 11.66 33.0234 12H33.9234C34.0034 12.32 34.0434 12.72 34.0434 13.2C34.0434 13.66 34.0034 14.06 33.9234 14.4ZM28.4034 22.8C28.4034 22.32 28.4434 21.92 28.5234 21.6H31.5234C31.6034 21.92 31.6434 22.32 31.6434 22.8C31.6434 23.26 31.6034 23.66 31.5234 24H28.5234C28.4434 23.66 28.4034 23.26 28.4034 22.8ZM43.6552 8.4C43.6552 8.86 43.6152 9.26 43.5352 9.6H40.5352C40.4552 9.26 40.4152 8.86 40.4152 8.4C40.4152 7.92 40.4552 7.52 40.5352 7.2H43.5352C43.6152 7.52 43.6552 7.92 43.6552 8.4ZM40.5352 19.2C40.6152 19.52 40.6552 19.92 40.6552 20.4C40.6552 20.86 40.6152 21.26 40.5352 21.6H39.0352C38.9552 21.26 38.9152 20.86 38.9152 20.4C38.9152 19.92 38.9552 19.52 39.0352 19.2H38.1352C38.0552 18.86 38.0152 18.46 38.0152 18C38.0152 17.52 38.0552 17.12 38.1352 16.8C38.0552 16.46 38.0152 16.06 38.0152 15.6C38.0152 15.12 38.0552 14.72 38.1352 14.4C38.0552 14.06 38.0152 13.66 38.0152 13.2C38.0152 12.72 38.0552 12.32 38.1352 12H39.0352C38.9552 11.66 38.9152 11.26 38.9152 10.8C38.9152 10.32 38.9552 9.92 39.0352 9.6H40.5352C40.6152 9.92 40.6552 10.32 40.6552 10.8C40.6552 11.26 40.6152 11.66 40.5352 12C40.6152 12.32 40.6552 12.72 40.6552 13.2C40.6552 13.66 40.6152 14.06 40.5352 14.4C40.6152 14.72 40.6552 15.12 40.6552 15.6C40.6552 16.06 40.6152 16.46 40.5352 16.8C40.6152 17.12 40.6552 17.52 40.6552 18C40.6552 18.46 40.6152 18.86 40.5352 19.2ZM45.9352 14.4C46.0152 14.72 46.0552 15.12 46.0552 15.6C46.0552 16.06 46.0152 16.46 45.9352 16.8C46.0152 17.12 46.0552 17.52 46.0552 18C46.0552 18.46 46.0152 18.86 45.9352 19.2H45.0352C45.1152 19.52 45.1552 19.92 45.1552 20.4C45.1552 20.86 45.1152 21.26 45.0352 21.6H43.5352C43.4552 21.26 43.4152 20.86 43.4152 20.4C43.4152 19.92 43.4552 19.52 43.5352 19.2C43.4552 18.86 43.4152 18.46 43.4152 18C43.4152 17.52 43.4552 17.12 43.5352 16.8C43.4552 16.46 43.4152 16.06 43.4152 15.6C43.4152 15.12 43.4552 14.72 43.5352 14.4C43.4552 14.06 43.4152 13.66 43.4152 13.2C43.4152 12.72 43.4552 12.32 43.5352 12C43.4552 11.66 43.4152 11.26 43.4152 10.8C43.4152 10.32 43.4552 9.92 43.5352 9.6H45.0352C45.1152 9.92 45.1552 10.32 45.1552 10.8C45.1552 11.26 45.1152 11.66 45.0352 12H45.9352C46.0152 12.32 46.0552 12.72 46.0552 13.2C46.0552 13.66 46.0152 14.06 45.9352 14.4ZM40.4152 22.8C40.4152 22.32 40.4552 21.92 40.5352 21.6H43.5352C43.6152 21.92 43.6552 22.32 43.6552 22.8C43.6552 23.26 43.6152 23.66 43.5352 24H40.5352C40.4552 23.66 40.4152 23.26 40.4152 22.8ZM55.6669 8.4C55.6669 8.86 55.6269 9.26 55.5469 9.6H52.5469C52.4669 9.26 52.4269 8.86 52.4269 8.4C52.4269 7.92 52.4669 7.52 52.5469 7.2H55.5469C55.6269 7.52 55.6669 7.92 55.6669 8.4ZM52.5469 19.2C52.6269 19.52 52.6669 19.92 52.6669 20.4C52.6669 20.86 52.6269 21.26 52.5469 21.6H51.0469C50.9669 21.26 50.9269 20.86 50.9269 20.4C50.9269 19.92 50.9669 19.52 51.0469 19.2H50.1469C50.0669 18.86 50.0269 18.46 50.0269 18C50.0269 17.52 50.0669 17.12 50.1469 16.8C50.0669 16.46 50.0269 16.06 50.0269 15.6C50.0269 15.12 50.0669 14.72 50.1469 14.4C50.0669 14.06 50.0269 13.66 50.0269 13.2C50.0269 12.72 50.0669 12.32 50.1469 12H51.0469C50.9669 11.66 50.9269 11.26 50.9269 10.8C50.9269 10.32 50.9669 9.92 51.0469 9.6H52.5469C52.6269 9.92 52.6669 10.32 52.6669 10.8C52.6669 11.26 52.6269 11.66 52.5469 12C52.6269 12.32 52.6669 12.72 52.6669 13.2C52.6669 13.66 52.6269 14.06 52.5469 14.4C52.6269 14.72 52.6669 15.12 52.6669 15.6C52.6669 16.06 52.6269 16.46 52.5469 16.8C52.6269 17.12 52.6669 17.52 52.6669 18C52.6669 18.46 52.6269 18.86 52.5469 19.2ZM57.9469 14.4C58.0269 14.72 58.0669 15.12 58.0669 15.6C58.0669 16.06 58.0269 16.46 57.9469 16.8C58.0269 17.12 58.0669 17.52 58.0669 18C58.0669 18.46 58.0269 18.86 57.9469 19.2H57.0469C57.1269 19.52 57.1669 19.92 57.1669 20.4C57.1669 20.86 57.1269 21.26 57.0469 21.6H55.5469C55.4669 21.26 55.4269 20.86 55.4269 20.4C55.4269 19.92 55.4669 19.52 55.5469 19.2C55.4669 18.86 55.4269 18.46 55.4269 18C55.4269 17.52 55.4669 17.12 55.5469 16.8C55.4669 16.46 55.4269 16.06 55.4269 15.6C55.4269 15.12 55.4669 14.72 55.5469 14.4C55.4669 14.06 55.4269 13.66 55.4269 13.2C55.4269 12.72 55.4669 12.32 55.5469 12C55.4669 11.66 55.4269 11.26 55.4269 10.8C55.4269 10.32 55.4669 9.92 55.5469 9.6H57.0469C57.1269 9.92 57.1669 10.32 57.1669 10.8C57.1669 11.26 57.1269 11.66 57.0469 12H57.9469C58.0269 12.32 58.0669 12.72 58.0669 13.2C58.0669 13.66 58.0269 14.06 57.9469 14.4ZM52.4269 22.8C52.4269 22.32 52.4669 21.92 52.5469 21.6H55.5469C55.6269 21.92 55.6669 22.32 55.6669 22.8C55.6669 23.26 55.6269 23.66 55.5469 24H52.5469C52.4669 23.66 52.4269 23.26 52.4269 22.8ZM67.6786 8.4C67.6786 8.86 67.6386 9.26 67.5586 9.6H64.5586C64.4786 9.26 64.4386 8.86 64.4386 8.4C64.4386 7.92 64.4786 7.52 64.5586 7.2H67.5586C67.6386 7.52 67.6786 7.92 67.6786 8.4ZM64.5586 19.2C64.6386 19.52 64.6786 19.92 64.6786 20.4C64.6786 20.86 64.6386 21.26 64.5586 21.6H63.0586C62.9786 21.26 62.9386 20.86 62.9386 20.4C62.9386 19.92 62.9786 19.52 63.0586 19.2H62.1586C62.0786 18.86 62.0386 18.46 62.0386 18C62.0386 17.52 62.0786 17.12 62.1586 16.8C62.0786 16.46 62.0386 16.06 62.0386 15.6C62.0386 15.12 62.0786 14.72 62.1586 14.4C62.0786 14.06 62.0386 13.66 62.0386 13.2C62.0386 12.72 62.0786 12.32 62.1586 12H63.0586C62.9786 11.66 62.9386 11.26 62.9386 10.8C62.9386 10.32 62.9786 9.92 63.0586 9.6H64.5586C64.6386 9.92 64.6786 10.32 64.6786 10.8C64.6786 11.26 64.6386 11.66 64.5586 12C64.6386 12.32 64.6786 12.72 64.6786 13.2C64.6786 13.66 64.6386 14.06 64.5586 14.4C64.6386 14.72 64.6786 15.12 64.6786 15.6C64.6786 16.06 64.6386 16.46 64.5586 16.8C64.6386 17.12 64.6786 17.52 64.6786 18C64.6786 18.46 64.6386 18.86 64.5586 19.2ZM69.9586 14.4C70.0386 14.72 70.0786 15.12 70.0786 15.6C70.0786 16.06 70.0386 16.46 69.9586 16.8C70.0386 17.12 70.0786 17.52 70.0786 18C70.0786 18.46 70.0386 18.86 69.9586 19.2H69.0586C69.1386 19.52 69.1786 19.92 69.1786 20.4C69.1786 20.86 69.1386 21.26 69.0586 21.6H67.5586C67.4786 21.26 67.4386 20.86 67.4386 20.4C67.4386 19.92 67.4786 19.52 67.5586 19.2C67.4786 18.86 67.4386 18.46 67.4386 18C67.4386 17.52 67.4786 17.12 67.5586 16.8C67.4786 16.46 67.4386 16.06 67.4386 15.6C67.4386 15.12 67.4786 14.72 67.5586 14.4C67.4786 14.06 67.4386 13.66 67.4386 13.2C67.4386 12.72 67.4786 12.32 67.5586 12C67.4786 11.66 67.4386 11.26 67.4386 10.8C67.4386 10.32 67.4786 9.92 67.5586 9.6H69.0586C69.1386 9.92 69.1786 10.32 69.1786 10.8C69.1786 11.26 69.1386 11.66 69.0586 12H69.9586C70.0386 12.32 70.0786 12.72 70.0786 13.2C70.0786 13.66 70.0386 14.06 69.9586 14.4ZM64.4386 22.8C64.4386 22.32 64.4786 21.92 64.5586 21.6H67.5586C67.6386 21.92 67.6786 22.32 67.6786 22.8C67.6786 23.26 67.6386 23.66 67.5586 24H64.5586C64.4786 23.66 64.4386 23.26 64.4386 22.8ZM79.6903 8.4C79.6903 8.86 79.6503 9.26 79.5703 9.6H76.5703C76.4903 9.26 76.4503 8.86 76.4503 8.4C76.4503 7.92 76.4903 7.52 76.5703 7.2H79.5703C79.6503 7.52 79.6903 7.92 79.6903 8.4ZM76.5703 19.2C76.6503 19.52 76.6903 19.92 76.6903 20.4C76.6903 20.86 76.6503 21.26 76.5703 21.6H75.0703C74.9903 21.26 74.9503 20.86 74.9503 20.4C74.9503 19.92 74.9903 19.52 75.0703 19.2H74.1703C74.0903 18.86 74.0503 18.46 74.0503 18C74.0503 17.52 74.0903 17.12 74.1703 16.8C74.0903 16.46 74.0503 16.06 74.0503 15.6C74.0503 15.12 74.0903 14.72 74.1703 14.4C74.0903 14.06 74.0503 13.66 74.0503 13.2C74.0503 12.72 74.0903 12.32 74.1703 12H75.0703C74.9903 11.66 74.9503 11.26 74.9503 10.8C74.9503 10.32 74.9903 9.92 75.0703 9.6H76.5703C76.6503 9.92 76.6903 10.32 76.6903 10.8C76.6903 11.26 76.6503 11.66 76.5703 12C76.6503 12.32 76.6903 12.72 76.6903 13.2C76.6903 13.66 76.6503 14.06 76.5703 14.4C76.6503 14.72 76.6903 15.12 76.6903 15.6C76.6903 16.06 76.6503 16.46 76.5703 16.8C76.6503 17.12 76.6903 17.52 76.6903 18C76.6903 18.46 76.6503 18.86 76.5703 19.2ZM81.9703 14.4C82.0503 14.72 82.0903 15.12 82.0903 15.6C82.0903 16.06 82.0503 16.46 81.9703 16.8C82.0503 17.12 82.0903 17.52 82.0903 18C82.0903 18.46 82.0503 18.86 81.9703 19.2H81.0703C81.1503 19.52 81.1903 19.92 81.1903 20.4C81.1903 20.86 81.1503 21.26 81.0703 21.6H79.5703C79.4903 21.26 79.4503 20.86 79.4503 20.4C79.4503 19.92 79.4903 19.52 79.5703 19.2C79.4903 18.86 79.4503 18.46 79.4503 18C79.4503 17.52 79.4903 17.12 79.5703 16.8C79.4903 16.46 79.4503 16.06 79.4503 15.6C79.4503 15.12 79.4903 14.72 79.5703 14.4C79.4903 14.06 79.4503 13.66 79.4503 13.2C79.4503 12.72 79.4903 12.32 79.5703 12C79.4903 11.66 79.4503 11.26 79.4503 10.8C79.4503 10.32 79.4903 9.92 79.5703 9.6H81.0703C81.1503 9.92 81.1903 10.32 81.1903 10.8C81.1903 11.26 81.1503 11.66 81.0703 12H81.9703C82.0503 12.32 82.0903 12.72 82.0903 13.2C82.0903 13.66 82.0503 14.06 81.9703 14.4ZM76.4503 22.8C76.4503 22.32 76.4903 21.92 76.5703 21.6H79.5703C79.6503 21.92 79.6903 22.32 79.6903 22.8C79.6903 23.26 79.6503 23.66 79.5703 24H76.5703C76.4903 23.66 76.4503 23.26 76.4503 22.8ZM91.702 8.4C91.702 8.86 91.662 9.26 91.582 9.6H88.582C88.502 9.26 88.462 8.86 88.462 8.4C88.462 7.92 88.502 7.52 88.582 7.2H91.582C91.662 7.52 91.702 7.92 91.702 8.4ZM88.582 19.2C88.662 19.52 88.702 19.92 88.702 20.4C88.702 20.86 88.662 21.26 88.582 21.6H87.082C87.002 21.26 86.962 20.86 86.962 20.4C86.962 19.92 87.002 19.52 87.082 19.2H86.182C86.102 18.86 86.062 18.46 86.062 18C86.062 17.52 86.102 17.12 86.182 16.8C86.102 16.46 86.062 16.06 86.062 15.6C86.062 15.12 86.102 14.72 86.182 14.4C86.102 14.06 86.062 13.66 86.062 13.2C86.062 12.72 86.102 12.32 86.182 12H87.082C87.002 11.66 86.962 11.26 86.962 10.8C86.962 10.32 87.002 9.92 87.082 9.6H88.582C88.662 9.92 88.702 10.32 88.702 10.8C88.702 11.26 88.662 11.66 88.582 12C88.662 12.32 88.702 12.72 88.702 13.2C88.702 13.66 88.662 14.06 88.582 14.4C88.662 14.72 88.702 15.12 88.702 15.6C88.702 16.06 88.662 16.46 88.582 16.8C88.662 17.12 88.702 17.52 88.702 18C88.702 18.46 88.662 18.86 88.582 19.2ZM93.982 14.4C94.062 14.72 94.102 15.12 94.102 15.6C94.102 16.06 94.062 16.46 93.982 16.8C94.062 17.12 94.102 17.52 94.102 18C94.102 18.46 94.062 18.86 93.982 19.2H93.082C93.162 19.52 93.202 19.92 93.202 20.4C93.202 20.86 93.162 21.26 93.082 21.6H91.582C91.502 21.26 91.462 20.86 91.462 20.4C91.462 19.92 91.502 19.52 91.582 19.2C91.502 18.86 91.462 18.46 91.462 18C91.462 17.52 91.502 17.12 91.582 16.8C91.502 16.46 91.462 16.06 91.462 15.6C91.462 15.12 91.502 14.72 91.582 14.4C91.502 14.06 91.462 13.66 91.462 13.2C91.462 12.72 91.502 12.32 91.582 12C91.502 11.66 91.462 11.26 91.462 10.8C91.462 10.32 91.502 9.92 91.582 9.6H93.082C93.162 9.92 93.202 10.32 93.202 10.8C93.202 11.26 93.162 11.66 93.082 12H93.982C94.062 12.32 94.102 12.72 94.102 13.2C94.102 13.66 94.062 14.06 93.982 14.4ZM88.462 22.8C88.462 22.32 88.502 21.92 88.582 21.6H91.582C91.662 21.92 91.702 22.32 91.702 22.8C91.702 23.26 91.662 23.66 91.582 24H88.582C88.502 23.66 88.462 23.26 88.462 22.8Z" fill="black"/>
<path d="M7.62 8.4C7.62 8.86 7.58 9.26 7.5 9.6H4.5C4.42 9.26 4.38 8.86 4.38 8.4C4.38 7.92 4.42 7.52 4.5 7.2H7.5C7.58 7.52 7.62 7.92 7.62 8.4ZM4.5 19.2C4.58 19.52 4.62 19.92 4.62 20.4C4.62 20.86 4.58 21.26 4.5 21.6H3C2.92 21.26 2.88 20.86 2.88 20.4C2.88 19.92 2.92 19.52 3 19.2H2.1C2.02 18.86 1.98 18.46 1.98 18C1.98 17.52 2.02 17.12 2.1 16.8C2.02 16.46 1.98 16.06 1.98 15.6C1.98 15.12 2.02 14.72 2.1 14.4C2.02 14.06 1.98 13.66 1.98 13.2C1.98 12.72 2.02 12.32 2.1 12H3C2.92 11.66 2.88 11.26 2.88 10.8C2.88 10.32 2.92 9.92 3 9.6H4.5C4.58 9.92 4.62 10.32 4.62 10.8C4.62 11.26 4.58 11.66 4.5 12C4.58 12.32 4.62 12.72 4.62 13.2C4.62 13.66 4.58 14.06 4.5 14.4C4.58 14.72 4.62 15.12 4.62 15.6C4.62 16.06 4.58 16.46 4.5 16.8C4.58 17.12 4.62 17.52 4.62 18C4.62 18.46 4.58 18.86 4.5 19.2ZM9.9 14.4C9.98 14.72 10.02 15.12 10.02 15.6C10.02 16.06 9.98 16.46 9.9 16.8C9.98 17.12 10.02 17.52 10.02 18C10.02 18.46 9.98 18.86 9.9 19.2H9C9.08 19.52 9.12 19.92 9.12 20.4C9.12 20.86 9.08 21.26 9 21.6H7.5C7.42 21.26 7.38 20.86 7.38 20.4C7.38 19.92 7.42 19.52 7.5 19.2C7.42 18.86 7.38 18.46 7.38 18C7.38 17.52 7.42 17.12 7.5 16.8C7.42 16.46 7.38 16.06 7.38 15.6C7.38 15.12 7.42 14.72 7.5 14.4C7.42 14.06 7.38 13.66 7.38 13.2C7.38 12.72 7.42 12.32 7.5 12C7.42 11.66 7.38 11.26 7.38 10.8C7.38 10.32 7.42 9.92 7.5 9.6H9C9.08 9.92 9.12 10.32 9.12 10.8C9.12 11.26 9.08 11.66 9 12H9.9C9.98 12.32 10.02 12.72 10.02 13.2C10.02 13.66 9.98 14.06 9.9 14.4ZM4.38 22.8C4.38 22.32 4.42 21.92 4.5 21.6H7.5C7.58 21.92 7.62 22.32 7.62 22.8C7.62 23.26 7.58 23.66 7.5 24H4.5C4.42 23.66 4.38 23.26 4.38 22.8ZM19.6317 8.4C19.6317 8.86 19.5917 9.26 19.5117 9.6H16.5117C16.4317 9.26 16.3917 8.86 16.3917 8.4C16.3917 7.92 16.4317 7.52 16.5117 7.2H19.5117C19.5917 7.52 19.6317 7.92 19.6317 8.4ZM16.5117 19.2C16.5917 19.52 16.6317 19.92 16.6317 20.4C16.6317 20.86 16.5917 21.26 16.5117 21.6H15.0117C14.9317 21.26 14.8917 20.86 14.8917 20.4C14.8917 19.92 14.9317 19.52 15.0117 19.2H14.1117C14.0317 18.86 13.9917 18.46 13.9917 18C13.9917 17.52 14.0317 17.12 14.1117 16.8C14.0317 16.46 13.9917 16.06 13.9917 15.6C13.9917 15.12 14.0317 14.72 14.1117 14.4C14.0317 14.06 13.9917 13.66 13.9917 13.2C13.9917 12.72 14.0317 12.32 14.1117 12H15.0117C14.9317 11.66 14.8917 11.26 14.8917 10.8C14.8917 10.32 14.9317 9.92 15.0117 9.6H16.5117C16.5917 9.92 16.6317 10.32 16.6317 10.8C16.6317 11.26 16.5917 11.66 16.5117 12C16.5917 12.32 16.6317 12.72 16.6317 13.2C16.6317 13.66 16.5917 14.06 16.5117 14.4C16.5917 14.72 16.6317 15.12 16.6317 15.6C16.6317 16.06 16.5917 16.46 16.5117 16.8C16.5917 17.12 16.6317 17.52 16.6317 18C16.6317 18.46 16.5917 18.86 16.5117 19.2ZM21.9117 14.4C21.9917 14.72 22.0317 15.12 22.0317 15.6C22.0317 16.06 21.9917 16.46 21.9117 16.8C21.9917 17.12 22.0317 17.52 22.0317 18C22.0317 18.46 21.9917 18.86 21.9117 19.2H21.0117C21.0917 19.52 21.1317 19.92 21.1317 20.4C21.1317 20.86 21.0917 21.26 21.0117 21.6H19.5117C19.4317 21.26 19.3917 20.86 19.3917 20.4C19.3917 19.92 19.4317 19.52 19.5117 19.2C19.4317 18.86 19.3917 18.46 19.3917 18C19.3917 17.52 19.4317 17.12 19.5117 16.8C19.4317 16.46 19.3917 16.06 19.3917 15.6C19.3917 15.12 19.4317 14.72 19.5117 14.4C19.4317 14.06 19.3917 13.66 19.3917 13.2C19.3917 12.72 19.4317 12.32 19.5117 12C19.4317 11.66 19.3917 11.26 19.3917 10.8C19.3917 10.32 19.4317 9.92 19.5117 9.6H21.0117C21.0917 9.92 21.1317 10.32 21.1317 10.8C21.1317 11.26 21.0917 11.66 21.0117 12H21.9117C21.9917 12.32 22.0317 12.72 22.0317 13.2C22.0317 13.66 21.9917 14.06 21.9117 14.4ZM16.3917 22.8C16.3917 22.32 16.4317 21.92 16.5117 21.6H19.5117C19.5917 21.92 19.6317 22.32 19.6317 22.8C19.6317 23.26 19.5917 23.66 19.5117 24H16.5117C16.4317 23.66 16.3917 23.26 16.3917 22.8ZM31.6434 8.4C31.6434 8.86 31.6034 9.26 31.5234 9.6H28.5234C28.4434 9.26 28.4034 8.86 28.4034 8.4C28.4034 7.92 28.4434 7.52 28.5234 7.2H31.5234C31.6034 7.52 31.6434 7.92 31.6434 8.4ZM28.5234 19.2C28.6034 19.52 28.6434 19.92 28.6434 20.4C28.6434 20.86 28.6034 21.26 28.5234 21.6H27.0234C26.9434 21.26 26.9034 20.86 26.9034 20.4C26.9034 19.92 26.9434 19.52 27.0234 19.2H26.1234C26.0434 18.86 26.0034 18.46 26.0034 18C26.0034 17.52 26.0434 17.12 26.1234 16.8C26.0434 16.46 26.0034 16.06 26.0034 15.6C26.0034 15.12 26.0434 14.72 26.1234 14.4C26.0434 14.06 26.0034 13.66 26.0034 13.2C26.0034 12.72 26.0434 12.32 26.1234 12H27.0234C26.9434 11.66 26.9034 11.26 26.9034 10.8C26.9034 10.32 26.9434 9.92 27.0234 9.6H28.5234C28.6034 9.92 28.6434 10.32 28.6434 10.8C28.6434 11.26 28.6034 11.66 28.5234 12C28.6034 12.32 28.6434 12.72 28.6434 13.2C28.6434 13.66 28.6034 14.06 28.5234 14.4C28.6034 14.72 28.6434 15.12 28.6434 15.6C28.6434 16.06 28.6034 16.46 28.5234 16.8C28.6034 17.12 28.6434 17.52 28.6434 18C28.6434 18.46 28.6034 18.86 28.5234 19.2ZM33.9234 14.4C34.0034 14.72 34.0434 15.12 34.0434 15.6C34.0434 16.06 34.0034 16.46 33.9234 16.8C34.0034 17.12 34.0434 17.52 34.0434 18C34.0434 18.46 34.0034 18.86 33.9234 19.2H33.0234C33.1034 19.52 33.1434 19.92 33.1434 20.4C33.1434 20.86 33.1034 21.26 33.0234 21.6H31.5234C31.4434 21.26 31.4034 20.86 31.4034 20.4C31.4034 19.92 31.4434 19.52 31.5234 19.2C31.4434 18.86 31.4034 18.46 31.4034 18C31.4034 17.52 31.4434 17.12 31.5234 16.8C31.4434 16.46 31.4034 16.06 31.4034 15.6C31.4034 15.12 31.4434 14.72 31.5234 14.4C31.4434 14.06 31.4034 13.66 31.4034 13.2C31.4034 12.72 31.4434 12.32 31.5234 12C31.4434 11.66 31.4034 11.26 31.4034 10.8C31.4034 10.32 31.4434 9.92 31.5234 9.6H33.0234C33.1034 9.92 33.1434 10.32 33.1434 10.8C33.1434 11.26 33.1034 11.66 33.0234 12H33.9234C34.0034 12.32 34.0434 12.72 34.0434 13.2C34.0434 13.66 34.0034 14.06 33.9234 14.4ZM28.4034 22.8C28.4034 22.32 28.4434 21.92 28.5234 21.6H31.5234C31.6034 21.92 31.6434 22.32 31.6434 22.8C31.6434 23.26 31.6034 23.66 31.5234 24H28.5234C28.4434 23.66 28.4034 23.26 28.4034 22.8ZM43.6552 8.4C43.6552 8.86 43.6152 9.26 43.5352 9.6H40.5352C40.4552 9.26 40.4152 8.86 40.4152 8.4C40.4152 7.92 40.4552 7.52 40.5352 7.2H43.5352C43.6152 7.52 43.6552 7.92 43.6552 8.4ZM40.5352 19.2C40.6152 19.52 40.6552 19.92 40.6552 20.4C40.6552 20.86 40.6152 21.26 40.5352 21.6H39.0352C38.9552 21.26 38.9152 20.86 38.9152 20.4C38.9152 19.92 38.9552 19.52 39.0352 19.2H38.1352C38.0552 18.86 38.0152 18.46 38.0152 18C38.0152 17.52 38.0552 17.12 38.1352 16.8C38.0552 16.46 38.0152 16.06 38.0152 15.6C38.0152 15.12 38.0552 14.72 38.1352 14.4C38.0552 14.06 38.0152 13.66 38.0152 13.2C38.0152 12.72 38.0552 12.32 38.1352 12H39.0352C38.9552 11.66 38.9152 11.26 38.9152 10.8C38.9152 10.32 38.9552 9.92 39.0352 9.6H40.5352C40.6152 9.92 40.6552 10.32 40.6552 10.8C40.6552 11.26 40.6152 11.66 40.5352 12C40.6152 12.32 40.6552 12.72 40.6552 13.2C40.6552 13.66 40.6152 14.06 40.5352 14.4C40.6152 14.72 40.6552 15.12 40.6552 15.6C40.6552 16.06 40.6152 16.46 40.5352 16.8C40.6152 17.12 40.6552 17.52 40.6552 18C40.6552 18.46 40.6152 18.86 40.5352 19.2ZM45.9352 14.4C46.0152 14.72 46.0552 15.12 46.0552 15.6C46.0552 16.06 46.0152 16.46 45.9352 16.8C46.0152 17.12 46.0552 17.52 46.0552 18C46.0552 18.46 46.0152 18.86 45.9352 19.2H45.0352C45.1152 19.52 45.1552 19.92 45.1552 20.4C45.1552 20.86 45.1152 21.26 45.0352 21.6H43.5352C43.4552 21.26 43.4152 20.86 43.4152 20.4C43.4152 19.92 43.4552 19.52 43.5352 19.2C43.4552 18.86 43.4152 18.46 43.4152 18C43.4152 17.52 43.4552 17.12 43.5352 16.8C43.4552 16.46 43.4152 16.06 43.4152 15.6C43.4152 15.12 43.4552 14.72 43.5352 14.4C43.4552 14.06 43.4152 13.66 43.4152 13.2C43.4152 12.72 43.4552 12.32 43.5352 12C43.4552 11.66 43.4152 11.26 43.4152 10.8C43.4152 10.32 43.4552 9.92 43.5352 9.6H45.0352C45.1152 9.92 45.1552 10.32 45.1552 10.8C45.1552 11.26 45.1152 11.66 45.0352 12H45.9352C46.0152 12.32 46.0552 12.72 46.0552 13.2C46.0552 13.66 46.0152 14.06 45.9352 14.4ZM40.4152 22.8C40.4152 22.32 40.4552 21.92 40.5352 21.6H43.5352C43.6152 21.92 43.6552 22.32 43.6552 22.8C43.6552 23.26 43.6152 23.66 43.5352 24H40.5352C40.4552 23.66 40.4152 23.26 40.4152 22.8ZM55.6669 8.4C55.6669 8.86 55.6269 9.26 55.5469 9.6H52.5469C52.4669 9.26 52.4269 8.86 52.4269 8.4C52.4269 7.92 52.4669 7.52 52.5469 7.2H55.5469C55.6269 7.52 55.6669 7.92 55.6669 8.4ZM52.5469 19.2C52.6269 19.52 52.6669 19.92 52.6669 20.4C52.6669 20.86 52.6269 21.26 52.5469 21.6H51.0469C50.9669 21.26 50.9269 20.86 50.9269 20.4C50.9269 19.92 50.9669 19.52 51.0469 19.2H50.1469C50.0669 18.86 50.0269 18.46 50.0269 18C50.0269 17.52 50.0669 17.12 50.1469 16.8C50.0669 16.46 50.0269 16.06 50.0269 15.6C50.0269 15.12 50.0669 14.72 50.1469 14.4C50.0669 14.06 50.0269 13.66 50.0269 13.2C50.0269 12.72 50.0669 12.32 50.1469 12H51.0469C50.9669 11.66 50.9269 11.26 50.9269 10.8C50.9269 10.32 50.9669 9.92 51.0469 9.6H52.5469C52.6269 9.92 52.6669 10.32 52.6669 10.8C52.6669 11.26 52.6269 11.66 52.5469 12C52.6269 12.32 52.6669 12.72 52.6669 13.2C52.6669 13.66 52.6269 14.06 52.5469 14.4C52.6269 14.72 52.6669 15.12 52.6669 15.6C52.6669 16.06 52.6269 16.46 52.5469 16.8C52.6269 17.12 52.6669 17.52 52.6669 18C52.6669 18.46 52.6269 18.86 52.5469 19.2ZM57.9469 14.4C58.0269 14.72 58.0669 15.12 58.0669 15.6C58.0669 16.06 58.0269 16.46 57.9469 16.8C58.0269 17.12 58.0669 17.52 58.0669 18C58.0669 18.46 58.0269 18.86 57.9469 19.2H57.0469C57.1269 19.52 57.1669 19.92 57.1669 20.4C57.1669 20.86 57.1269 21.26 57.0469 21.6H55.5469C55.4669 21.26 55.4269 20.86 55.4269 20.4C55.4269 19.92 55.4669 19.52 55.5469 19.2C55.4669 18.86 55.4269 18.46 55.4269 18C55.4269 17.52 55.4669 17.12 55.5469 16.8C55.4669 16.46 55.4269 16.06 55.4269 15.6C55.4269 15.12 55.4669 14.72 55.5469 14.4C55.4669 14.06 55.4269 13.66 55.4269 13.2C55.4269 12.72 55.4669 12.32 55.5469 12C55.4669 11.66 55.4269 11.26 55.4269 10.8C55.4269 10.32 55.4669 9.92 55.5469 9.6H57.0469C57.1269 9.92 57.1669 10.32 57.1669 10.8C57.1669 11.26 57.1269 11.66 57.0469 12H57.9469C58.0269 12.32 58.0669 12.72 58.0669 13.2C58.0669 13.66 58.0269 14.06 57.9469 14.4ZM52.4269 22.8C52.4269 22.32 52.4669 21.92 52.5469 21.6H55.5469C55.6269 21.92 55.6669 22.32 55.6669 22.8C55.6669 23.26 55.6269 23.66 55.5469 24H52.5469C52.4669 23.66 52.4269 23.26 52.4269 22.8ZM67.6786 8.4C67.6786 8.86 67.6386 9.26 67.5586 9.6H64.5586C64.4786 9.26 64.4386 8.86 64.4386 8.4C64.4386 7.92 64.4786 7.52 64.5586 7.2H67.5586C67.6386 7.52 67.6786 7.92 67.6786 8.4ZM64.5586 19.2C64.6386 19.52 64.6786 19.92 64.6786 20.4C64.6786 20.86 64.6386 21.26 64.5586 21.6H63.0586C62.9786 21.26 62.9386 20.86 62.9386 20.4C62.9386 19.92 62.9786 19.52 63.0586 19.2H62.1586C62.0786 18.86 62.0386 18.46 62.0386 18C62.0386 17.52 62.0786 17.12 62.1586 16.8C62.0786 16.46 62.0386 16.06 62.0386 15.6C62.0386 15.12 62.0786 14.72 62.1586 14.4C62.0786 14.06 62.0386 13.66 62.0386 13.2C62.0386 12.72 62.0786 12.32 62.1586 12H63.0586C62.9786 11.66 62.9386 11.26 62.9386 10.8C62.9386 10.32 62.9786 9.92 63.0586 9.6H64.5586C64.6386 9.92 64.6786 10.32 64.6786 10.8C64.6786 11.26 64.6386 11.66 64.5586 12C64.6386 12.32 64.6786 12.72 64.6786 13.2C64.6786 13.66 64.6386 14.06 64.5586 14.4C64.6386 14.72 64.6786 15.12 64.6786 15.6C64.6786 16.06 64.6386 16.46 64.5586 16.8C64.6386 17.12 64.6786 17.52 64.6786 18C64.6786 18.46 64.6386 18.86 64.5586 19.2ZM69.9586 14.4C70.0386 14.72 70.0786 15.12 70.0786 15.6C70.0786 16.06 70.0386 16.46 69.9586 16.8C70.0386 17.12 70.0786 17.52 70.0786 18C70.0786 18.46 70.0386 18.86 69.9586 19.2H69.0586C69.1386 19.52 69.1786 19.92 69.1786 20.4C69.1786 20.86 69.1386 21.26 69.0586 21.6H67.5586C67.4786 21.26 67.4386 20.86 67.4386 20.4C67.4386 19.92 67.4786 19.52 67.5586 19.2C67.4786 18.86 67.4386 18.46 67.4386 18C67.4386 17.52 67.4786 17.12 67.5586 16.8C67.4786 16.46 67.4386 16.06 67.4386 15.6C67.4386 15.12 67.4786 14.72 67.5586 14.4C67.4786 14.06 67.4386 13.66 67.4386 13.2C67.4386 12.72 67.4786 12.32 67.5586 12C67.4786 11.66 67.4386 11.26 67.4386 10.8C67.4386 10.32 67.4786 9.92 67.5586 9.6H69.0586C69.1386 9.92 69.1786 10.32 69.1786 10.8C69.1786 11.26 69.1386 11.66 69.0586 12H69.9586C70.0386 12.32 70.0786 12.72 70.0786 13.2C70.0786 13.66 70.0386 14.06 69.9586 14.4ZM64.4386 22.8C64.4386 22.32 64.4786 21.92 64.5586 21.6H67.5586C67.6386 21.92 67.6786 22.32 67.6786 22.8C67.6786 23.26 67.6386 23.66 67.5586 24H64.5586C64.4786 23.66 64.4386 23.26 64.4386 22.8ZM79.6903 8.4C79.6903 8.86 79.6503 9.26 79.5703 9.6H76.5703C76.4903 9.26 76.4503 8.86 76.4503 8.4C76.4503 7.92 76.4903 7.52 76.5703 7.2H79.5703C79.6503 7.52 79.6903 7.92 79.6903 8.4ZM76.5703 19.2C76.6503 19.52 76.6903 19.92 76.6903 20.4C76.6903 20.86 76.6503 21.26 76.5703 21.6H75.0703C74.9903 21.26 74.9503 20.86 74.9503 20.4C74.9503 19.92 74.9903 19.52 75.0703 19.2H74.1703C74.0903 18.86 74.0503 18.46 74.0503 18C74.0503 17.52 74.0903 17.12 74.1703 16.8C74.0903 16.46 74.0503 16.06 74.0503 15.6C74.0503 15.12 74.0903 14.72 74.1703 14.4C74.0903 14.06 74.0503 13.66 74.0503 13.2C74.0503 12.72 74.0903 12.32 74.1703 12H75.0703C74.9903 11.66 74.9503 11.26 74.9503 10.8C74.9503 10.32 74.9903 9.92 75.0703 9.6H76.5703C76.6503 9.92 76.6903 10.32 76.6903 10.8C76.6903 11.26 76.6503 11.66 76.5703 12C76.6503 12.32 76.6903 12.72 76.6903 13.2C76.6903 13.66 76.6503 14.06 76.5703 14.4C76.6503 14.72 76.6903 15.12 76.6903 15.6C76.6903 16.06 76.6503 16.46 76.5703 16.8C76.6503 17.12 76.6903 17.52 76.6903 18C76.6903 18.46 76.6503 18.86 76.5703 19.2ZM81.9703 14.4C82.0503 14.72 82.0903 15.12 82.0903 15.6C82.0903 16.06 82.0503 16.46 81.9703 16.8C82.0503 17.12 82.0903 17.52 82.0903 18C82.0903 18.46 82.0503 18.86 81.9703 19.2H81.0703C81.1503 19.52 81.1903 19.92 81.1903 20.4C81.1903 20.86 81.1503 21.26 81.0703 21.6H79.5703C79.4903 21.26 79.4503 20.86 79.4503 20.4C79.4503 19.92 79.4903 19.52 79.5703 19.2C79.4903 18.86 79.4503 18.46 79.4503 18C79.4503 17.52 79.4903 17.12 79.5703 16.8C79.4903 16.46 79.4503 16.06 79.4503 15.6C79.4503 15.12 79.4903 14.72 79.5703 14.4C79.4903 14.06 79.4503 13.66 79.4503 13.2C79.4503 12.72 79.4903 12.32 79.5703 12C79.4903 11.66 79.4503 11.26 79.4503 10.8C79.4503 10.32 79.4903 9.92 79.5703 9.6H81.0703C81.1503 9.92 81.1903 10.32 81.1903 10.8C81.1903 11.26 81.1503 11.66 81.0703 12H81.9703C82.0503 12.32 82.0903 12.72 82.0903 13.2C82.0903 13.66 82.0503 14.06 81.9703 14.4ZM76.4503 22.8C76.4503 22.32 76.4903 21.92 76.5703 21.6H79.5703C79.6503 21.92 79.6903 22.32 79.6903 22.8C79.6903 23.26 79.6503 23.66 79.5703 24H76.5703C76.4903 23.66 76.4503 23.26 76.4503 22.8ZM91.702 8.4C91.702 8.86 91.662 9.26 91.582 9.6H88.582C88.502 9.26 88.462 8.86 88.462 8.4C88.462 7.92 88.502 7.52 88.582 7.2H91.582C91.662 7.52 91.702 7.92 91.702 8.4ZM88.582 19.2C88.662 19.52 88.702 19.92 88.702 20.4C88.702 20.86 88.662 21.26 88.582 21.6H87.082C87.002 21.26 86.962 20.86 86.962 20.4C86.962 19.92 87.002 19.52 87.082 19.2H86.182C86.102 18.86 86.062 18.46 86.062 18C86.062 17.52 86.102 17.12 86.182 16.8C86.102 16.46 86.062 16.06 86.062 15.6C86.062 15.12 86.102 14.72 86.182 14.4C86.102 14.06 86.062 13.66 86.062 13.2C86.062 12.72 86.102 12.32 86.182 12H87.082C87.002 11.66 86.962 11.26 86.962 10.8C86.962 10.32 87.002 9.92 87.082 9.6H88.582C88.662 9.92 88.702 10.32 88.702 10.8C88.702 11.26 88.662 11.66 88.582 12C88.662 12.32 88.702 12.72 88.702 13.2C88.702 13.66 88.662 14.06 88.582 14.4C88.662 14.72 88.702 15.12 88.702 15.6C88.702 16.06 88.662 16.46 88.582 16.8C88.662 17.12 88.702 17.52 88.702 18C88.702 18.46 88.662 18.86 88.582 19.2ZM93.982 14.4C94.062 14.72 94.102 15.12 94.102 15.6C94.102 16.06 94.062 16.46 93.982 16.8C94.062 17.12 94.102 17.52 94.102 18C94.102 18.46 94.062 18.86 93.982 19.2H93.082C93.162 19.52 93.202 19.92 93.202 20.4C93.202 20.86 93.162 21.26 93.082 21.6H91.582C91.502 21.26 91.462 20.86 91.462 20.4C91.462 19.92 91.502 19.52 91.582 19.2C91.502 18.86 91.462 18.46 91.462 18C91.462 17.52 91.502 17.12 91.582 16.8C91.502 16.46 91.462 16.06 91.462 15.6C91.462 15.12 91.502 14.72 91.582 14.4C91.502 14.06 91.462 13.66 91.462 13.2C91.462 12.72 91.502 12.32 91.582 12C91.502 11.66 91.462 11.26 91.462 10.8C91.462 10.32 91.502 9.92 91.582 9.6H93.082C93.162 9.92 93.202 10.32 93.202 10.8C93.202 11.26 93.162 11.66 93.082 12H93.982C94.062 12.32 94.102 12.72 94.102 13.2C94.102 13.66 94.062 14.06 93.982 14.4ZM88.462 22.8C88.462 22.32 88.502 21.92 88.582 21.6H91.582C91.662 21.92 91.702 22.32 91.702 22.8C91.702 23.26 91.662 23.66 91.582 24H88.582C88.502 23.66 88.462 23.26 88.462 22.8Z" fill="white"/>
</svg>
