<svg width="111" height="32" viewBox="0 0 111 32" fill="none" xmlns="http://www.w3.org/2000/svg">
<path d="M11.8 18.8C11.88 19.12 11.92 19.52 11.92 20C11.92 20.46 11.88 20.86 11.8 21.2C11.88 21.52 11.92 21.92 11.92 22.4C11.92 22.86 11.88 23.26 11.8 23.6H10.6C10.68 23.92 10.72 24.32 10.72 24.8C10.72 25.26 10.68 25.66 10.6 26H3.4C3.32 25.66 3.28 25.26 3.28 24.8C3.28 24.32 3.32 23.92 3.4 23.6H2.2C2.12 23.26 2.08 22.86 2.08 22.4C2.08 21.92 2.12 21.52 2.2 21.2H4.6C4.68 21.52 4.72 21.92 4.72 22.4C4.72 22.86 4.68 23.26 4.6 23.6H9.4C9.32 23.26 9.28 22.86 9.28 22.4C9.28 21.92 9.32 21.52 9.4 21.2C9.32 20.86 9.28 20.46 9.28 20C9.28 19.52 9.32 19.12 9.4 18.8H3.4C3.32 18.46 3.28 18.06 3.28 17.6C3.28 17.12 3.32 16.72 3.4 16.4H2.2C2.12 16.06 2.08 15.66 2.08 15.2C2.08 14.72 2.12 14.32 2.2 14C2.12 13.66 2.08 13.26 2.08 12.8C2.08 12.32 2.12 11.92 2.2 11.6H3.4C3.32 11.26 3.28 10.86 3.28 10.4C3.28 9.92 3.32 9.52 3.4 9.2H10.6C10.68 9.52 10.72 9.92 10.72 10.4C10.72 10.86 10.68 11.26 10.6 11.6H11.8C11.88 11.92 11.92 12.32 11.92 12.8C11.92 13.26 11.88 13.66 11.8 14H9.4C9.32 13.66 9.28 13.26 9.28 12.8C9.28 12.32 9.32 11.92 9.4 11.6H4.6C4.68 11.92 4.72 12.32 4.72 12.8C4.72 13.26 4.68 13.66 4.6 14C4.68 14.32 4.72 14.72 4.72 15.2C4.72 15.66 4.68 16.06 4.6 16.4H10.6C10.68 16.72 10.72 17.12 10.72 17.6C10.72 18.06 10.68 18.46 10.6 18.8H11.8ZM22.6117 23.6C22.6917 23.92 22.7317 24.32 22.7317 24.8C22.7317 25.26 22.6917 25.66 22.6117 26H17.8117C17.7317 25.66 17.6917 25.26 17.6917 24.8C17.6917 24.32 17.7317 23.92 17.8117 23.6H16.6117C16.5317 23.26 16.4917 22.86 16.4917 22.4C16.4917 21.92 16.5317 21.52 16.6117 21.2C16.5317 20.86 16.4917 20.46 16.4917 20C16.4917 19.52 16.5317 19.12 16.6117 18.8C16.5317 18.46 16.4917 18.06 16.4917 17.6C16.4917 17.12 16.5317 16.72 16.6117 16.4H14.2117C14.1317 16.06 14.0917 15.66 14.0917 15.2C14.0917 14.72 14.1317 14.32 14.2117 14H16.6117C16.5317 13.66 16.4917 13.26 16.4917 12.8C16.4917 12.32 16.5317 11.92 16.6117 11.6C16.5317 11.26 16.4917 10.86 16.4917 10.4C16.4917 9.92 16.5317 9.52 16.6117 9.2H19.0117C19.0917 9.52 19.1317 9.92 19.1317 10.4C19.1317 10.86 19.0917 11.26 19.0117 11.6C19.0917 11.92 19.1317 12.32 19.1317 12.8C19.1317 13.26 19.0917 13.66 19.0117 14H22.6117C22.6917 14.32 22.7317 14.72 22.7317 15.2C22.7317 15.66 22.6917 16.06 22.6117 16.4H19.0117C19.0917 16.72 19.1317 17.12 19.1317 17.6C19.1317 18.06 19.0917 18.46 19.0117 18.8C19.0917 19.12 19.1317 19.52 19.1317 20C19.1317 20.46 19.0917 20.86 19.0117 21.2C19.0917 21.52 19.1317 21.92 19.1317 22.4C19.1317 22.86 19.0917 23.26 19.0117 23.6H22.6117ZM35.8234 23.6C35.9034 23.92 35.9434 24.32 35.9434 24.8C35.9434 25.26 35.9034 25.66 35.8234 26H33.4234C33.3434 25.66 33.3034 25.26 33.3034 24.8C33.3034 24.32 33.3434 23.92 33.4234 23.6H32.2234C32.1434 23.26 32.1034 22.86 32.1034 22.4C32.1034 21.92 32.1434 21.52 32.2234 21.2H28.6234C28.7034 21.52 28.7434 21.92 28.7434 22.4C28.7434 22.86 28.7034 23.26 28.6234 23.6H32.2234C32.3034 23.92 32.3434 24.32 32.3434 24.8C32.3434 25.26 32.3034 25.66 32.2234 26H27.4234C27.3434 25.66 27.3034 25.26 27.3034 24.8C27.3034 24.32 27.3434 23.92 27.4234 23.6H26.2234C26.1434 23.26 26.1034 22.86 26.1034 22.4C26.1034 21.92 26.1434 21.52 26.2234 21.2H27.4234C27.3434 20.86 27.3034 20.46 27.3034 20C27.3034 19.52 27.3434 19.12 27.4234 18.8H32.2234C32.1434 18.46 32.1034 18.06 32.1034 17.6C32.1034 17.12 32.1434 16.72 32.2234 16.4H28.0234C27.9434 16.06 27.9034 15.66 27.9034 15.2C27.9034 14.72 27.9434 14.32 28.0234 14H33.4234C33.5034 14.32 33.5434 14.72 33.5434 15.2C33.5434 15.66 33.5034 16.06 33.4234 16.4H34.6234C34.7034 16.72 34.7434 17.12 34.7434 17.6C34.7434 18.06 34.7034 18.46 34.6234 18.8C34.7034 19.12 34.7434 19.52 34.7434 20C34.7434 20.46 34.7034 20.86 34.6234 21.2C34.7034 21.52 34.7434 21.92 34.7434 22.4C34.7434 22.86 34.7034 23.26 34.6234 23.6H35.8234ZM47.8352 16.4C47.9152 16.72 47.9552 17.12 47.9552 17.6C47.9552 18.06 47.9152 18.46 47.8352 18.8C47.9152 19.12 47.9552 19.52 47.9552 20C47.9552 20.46 47.9152 20.86 47.8352 21.2C47.9152 21.52 47.9552 21.92 47.9552 22.4C47.9552 22.86 47.9152 23.26 47.8352 23.6C47.9152 23.92 47.9552 24.32 47.9552 24.8C47.9552 25.26 47.9152 25.66 47.8352 26H46.6352C46.7152 26.32 46.7552 26.72 46.7552 27.2C46.7552 27.66 46.7152 28.06 46.6352 28.4H45.4352C45.5152 28.72 45.5552 29.12 45.5552 29.6C45.5552 30.06 45.5152 30.46 45.4352 30.8H40.6352C40.5552 30.46 40.5152 30.06 40.5152 29.6C40.5152 29.12 40.5552 28.72 40.6352 28.4H44.2352C44.1552 28.06 44.1152 27.66 44.1152 27.2C44.1152 26.72 44.1552 26.32 44.2352 26H45.4352C45.3552 25.66 45.3152 25.26 45.3152 24.8C45.3152 24.32 45.3552 23.92 45.4352 23.6H44.2352C44.1552 23.26 44.1152 22.86 44.1152 22.4C44.1152 21.92 44.1552 21.52 44.2352 21.2H45.4352C45.3552 20.86 45.3152 20.46 45.3152 20C45.3152 19.52 45.3552 19.12 45.4352 18.8C45.3552 18.46 45.3152 18.06 45.3152 17.6C45.3152 17.12 45.3552 16.72 45.4352 16.4H41.5352C41.6152 16.72 41.6552 17.12 41.6552 17.6C41.6552 18.06 41.6152 18.46 41.5352 18.8H40.6352C40.7152 19.12 40.7552 19.52 40.7552 20C40.7552 20.46 40.7152 20.86 40.6352 21.2H41.5352C41.6152 21.52 41.6552 21.92 41.6552 22.4C41.6552 22.86 41.6152 23.26 41.5352 23.6H44.2352C44.3152 23.92 44.3552 24.32 44.3552 24.8C44.3552 25.26 44.3152 25.66 44.2352 26H40.6352C40.5552 25.66 40.5152 25.26 40.5152 24.8C40.5152 24.32 40.5552 23.92 40.6352 23.6H39.1352C39.0552 23.26 39.0152 22.86 39.0152 22.4C39.0152 21.92 39.0552 21.52 39.1352 21.2H38.2352C38.1552 20.86 38.1152 20.46 38.1152 20C38.1152 19.52 38.1552 19.12 38.2352 18.8H39.1352C39.0552 18.46 39.0152 18.06 39.0152 17.6C39.0152 17.12 39.0552 16.72 39.1352 16.4H40.6352C40.5552 16.06 40.5152 15.66 40.5152 15.2C40.5152 14.72 40.5552 14.32 40.6352 14H47.8352C47.9152 14.32 47.9552 14.72 47.9552 15.2C47.9552 15.66 47.9152 16.06 47.8352 16.4ZM59.9669 17.6C59.9669 18.06 59.9269 18.46 59.8469 18.8C59.9269 19.12 59.9669 19.52 59.9669 20C59.9669 20.46 59.9269 20.86 59.8469 21.2H53.5469C53.6269 21.52 53.6669 21.92 53.6669 22.4C53.6669 22.86 53.6269 23.26 53.5469 23.6H58.6469C58.7269 23.92 58.7669 24.32 58.7669 24.8C58.7669 25.26 58.7269 25.66 58.6469 26H52.6469C52.5669 25.66 52.5269 25.26 52.5269 24.8C52.5269 24.32 52.5669 23.92 52.6469 23.6H51.1469C51.0669 23.26 51.0269 22.86 51.0269 22.4C51.0269 21.92 51.0669 21.52 51.1469 21.2H50.2469C50.1669 20.86 50.1269 20.46 50.1269 20C50.1269 19.52 50.1669 19.12 50.2469 18.8H51.1469C51.0669 18.46 51.0269 18.06 51.0269 17.6C51.0269 17.12 51.0669 16.72 51.1469 16.4H52.6469C52.5669 16.06 52.5269 15.66 52.5269 15.2C52.5269 14.72 52.5669 14.32 52.6469 14H58.6469C58.7269 14.32 58.7669 14.72 58.7669 15.2C58.7669 15.66 58.7269 16.06 58.6469 16.4H59.8469C59.9269 16.72 59.9669 17.12 59.9669 17.6ZM57.4469 18.8C57.3669 18.46 57.3269 18.06 57.3269 17.6C57.3269 17.12 57.3669 16.72 57.4469 16.4H53.5469C53.6269 16.72 53.6669 17.12 53.6669 17.6C53.6669 18.06 53.6269 18.46 53.5469 18.8H57.4469ZM82.6703 23.6C82.7503 23.92 82.7903 24.32 82.7903 24.8C82.7903 25.26 82.7503 25.66 82.6703 26H75.4703C75.3903 25.66 75.3503 25.26 75.3503 24.8C75.3503 24.32 75.3903 23.92 75.4703 23.6H77.8703C77.7903 23.26 77.7503 22.86 77.7503 22.4C77.7503 21.92 77.7903 21.52 77.8703 21.2C77.7903 20.86 77.7503 20.46 77.7503 20C77.7503 19.52 77.7903 19.12 77.8703 18.8C77.7903 18.46 77.7503 18.06 77.7503 17.6C77.7503 17.12 77.7903 16.72 77.8703 16.4C77.7903 16.06 77.7503 15.66 77.7503 15.2C77.7503 14.72 77.7903 14.32 77.8703 14H76.0703C75.9903 13.66 75.9503 13.26 75.9503 12.8C75.9503 12.32 75.9903 11.92 76.0703 11.6H77.8703C77.7903 11.26 77.7503 10.86 77.7503 10.4C77.7503 9.92 77.7903 9.52 77.8703 9.2H80.2703C80.3503 9.52 80.3903 9.92 80.3903 10.4C80.3903 10.86 80.3503 11.26 80.2703 11.6C80.3503 11.92 80.3903 12.32 80.3903 12.8C80.3903 13.26 80.3503 13.66 80.2703 14C80.3503 14.32 80.3903 14.72 80.3903 15.2C80.3903 15.66 80.3503 16.06 80.2703 16.4C80.3503 16.72 80.3903 17.12 80.3903 17.6C80.3903 18.06 80.3503 18.46 80.2703 18.8C80.3503 19.12 80.3903 19.52 80.3903 20C80.3903 20.46 80.3503 20.86 80.2703 21.2C80.3503 21.52 80.3903 21.92 80.3903 22.4C80.3903 22.86 80.3503 23.26 80.2703 23.6H82.6703ZM94.082 16.4C94.162 16.72 94.202 17.12 94.202 17.6C94.202 18.06 94.162 18.46 94.082 18.8H88.082C88.002 18.46 87.962 18.06 87.962 17.6C87.962 17.12 88.002 16.72 88.082 16.4H94.082ZM106.694 23.6C106.774 23.92 106.814 24.32 106.814 24.8C106.814 25.26 106.774 25.66 106.694 26H99.4938C99.4138 25.66 99.3738 25.26 99.3738 24.8C99.3738 24.32 99.4138 23.92 99.4938 23.6H101.894C101.814 23.26 101.774 22.86 101.774 22.4C101.774 21.92 101.814 21.52 101.894 21.2C101.814 20.86 101.774 20.46 101.774 20C101.774 19.52 101.814 19.12 101.894 18.8C101.814 18.46 101.774 18.06 101.774 17.6C101.774 17.12 101.814 16.72 101.894 16.4C101.814 16.06 101.774 15.66 101.774 15.2C101.774 14.72 101.814 14.32 101.894 14H100.094C100.014 13.66 99.9738 13.26 99.9738 12.8C99.9738 12.32 100.014 11.92 100.094 11.6H101.894C101.814 11.26 101.774 10.86 101.774 10.4C101.774 9.92 101.814 9.52 101.894 9.2H104.294C104.374 9.52 104.414 9.92 104.414 10.4C104.414 10.86 104.374 11.26 104.294 11.6C104.374 11.92 104.414 12.32 104.414 12.8C104.414 13.26 104.374 13.66 104.294 14C104.374 14.32 104.414 14.72 104.414 15.2C104.414 15.66 104.374 16.06 104.294 16.4C104.374 16.72 104.414 17.12 104.414 17.6C104.414 18.06 104.374 18.46 104.294 18.8C104.374 19.12 104.414 19.52 104.414 20C104.414 20.46 104.374 20.86 104.294 21.2C104.374 21.52 104.414 21.92 104.414 22.4C104.414 22.86 104.374 23.26 104.294 23.6H106.694Z" fill="black"/>
<path d="M12.8 18.8C12.88 19.12 12.92 19.52 12.92 20C12.92 20.46 12.88 20.86 12.8 21.2C12.88 21.52 12.92 21.92 12.92 22.4C12.92 22.86 12.88 23.26 12.8 23.6H11.6C11.68 23.92 11.72 24.32 11.72 24.8C11.72 25.26 11.68 25.66 11.6 26H4.4C4.32 25.66 4.28 25.26 4.28 24.8C4.28 24.32 4.32 23.92 4.4 23.6H3.2C3.12 23.26 3.08 22.86 3.08 22.4C3.08 21.92 3.12 21.52 3.2 21.2H5.6C5.68 21.52 5.72 21.92 5.72 22.4C5.72 22.86 5.68 23.26 5.6 23.6H10.4C10.32 23.26 10.28 22.86 10.28 22.4C10.28 21.92 10.32 21.52 10.4 21.2C10.32 20.86 10.28 20.46 10.28 20C10.28 19.52 10.32 19.12 10.4 18.8H4.4C4.32 18.46 4.28 18.06 4.28 17.6C4.28 17.12 4.32 16.72 4.4 16.4H3.2C3.12 16.06 3.08 15.66 3.08 15.2C3.08 14.72 3.12 14.32 3.2 14C3.12 13.66 3.08 13.26 3.08 12.8C3.08 12.32 3.12 11.92 3.2 11.6H4.4C4.32 11.26 4.28 10.86 4.28 10.4C4.28 9.92 4.32 9.52 4.4 9.2H11.6C11.68 9.52 11.72 9.92 11.72 10.4C11.72 10.86 11.68 11.26 11.6 11.6H12.8C12.88 11.92 12.92 12.32 12.92 12.8C12.92 13.26 12.88 13.66 12.8 14H10.4C10.32 13.66 10.28 13.26 10.28 12.8C10.28 12.32 10.32 11.92 10.4 11.6H5.6C5.68 11.92 5.72 12.32 5.72 12.8C5.72 13.26 5.68 13.66 5.6 14C5.68 14.32 5.72 14.72 5.72 15.2C5.72 15.66 5.68 16.06 5.6 16.4H11.6C11.68 16.72 11.72 17.12 11.72 17.6C11.72 18.06 11.68 18.46 11.6 18.8H12.8ZM23.6117 23.6C23.6917 23.92 23.7317 24.32 23.7317 24.8C23.7317 25.26 23.6917 25.66 23.6117 26H18.8117C18.7317 25.66 18.6917 25.26 18.6917 24.8C18.6917 24.32 18.7317 23.92 18.8117 23.6H17.6117C17.5317 23.26 17.4917 22.86 17.4917 22.4C17.4917 21.92 17.5317 21.52 17.6117 21.2C17.5317 20.86 17.4917 20.46 17.4917 20C17.4917 19.52 17.5317 19.12 17.6117 18.8C17.5317 18.46 17.4917 18.06 17.4917 17.6C17.4917 17.12 17.5317 16.72 17.6117 16.4H15.2117C15.1317 16.06 15.0917 15.66 15.0917 15.2C15.0917 14.72 15.1317 14.32 15.2117 14H17.6117C17.5317 13.66 17.4917 13.26 17.4917 12.8C17.4917 12.32 17.5317 11.92 17.6117 11.6C17.5317 11.26 17.4917 10.86 17.4917 10.4C17.4917 9.92 17.5317 9.52 17.6117 9.2H20.0117C20.0917 9.52 20.1317 9.92 20.1317 10.4C20.1317 10.86 20.0917 11.26 20.0117 11.6C20.0917 11.92 20.1317 12.32 20.1317 12.8C20.1317 13.26 20.0917 13.66 20.0117 14H23.6117C23.6917 14.32 23.7317 14.72 23.7317 15.2C23.7317 15.66 23.6917 16.06 23.6117 16.4H20.0117C20.0917 16.72 20.1317 17.12 20.1317 17.6C20.1317 18.06 20.0917 18.46 20.0117 18.8C20.0917 19.12 20.1317 19.52 20.1317 20C20.1317 20.46 20.0917 20.86 20.0117 21.2C20.0917 21.52 20.1317 21.92 20.1317 22.4C20.1317 22.86 20.0917 23.26 20.0117 23.6H23.6117ZM36.8234 23.6C36.9034 23.92 36.9434 24.32 36.9434 24.8C36.9434 25.26 36.9034 25.66 36.8234 26H34.4234C34.3434 25.66 34.3034 25.26 34.3034 24.8C34.3034 24.32 34.3434 23.92 34.4234 23.6H33.2234C33.1434 23.26 33.1034 22.86 33.1034 22.4C33.1034 21.92 33.1434 21.52 33.2234 21.2H29.6234C29.7034 21.52 29.7434 21.92 29.7434 22.4C29.7434 22.86 29.7034 23.26 29.6234 23.6H33.2234C33.3034 23.92 33.3434 24.32 33.3434 24.8C33.3434 25.26 33.3034 25.66 33.2234 26H28.4234C28.3434 25.66 28.3034 25.26 28.3034 24.8C28.3034 24.32 28.3434 23.92 28.4234 23.6H27.2234C27.1434 23.26 27.1034 22.86 27.1034 22.4C27.1034 21.92 27.1434 21.52 27.2234 21.2H28.4234C28.3434 20.86 28.3034 20.46 28.3034 20C28.3034 19.52 28.3434 19.12 28.4234 18.8H33.2234C33.1434 18.46 33.1034 18.06 33.1034 17.6C33.1034 17.12 33.1434 16.72 33.2234 16.4H29.0234C28.9434 16.06 28.9034 15.66 28.9034 15.2C28.9034 14.72 28.9434 14.32 29.0234 14H34.4234C34.5034 14.32 34.5434 14.72 34.5434 15.2C34.5434 15.66 34.5034 16.06 34.4234 16.4H35.6234C35.7034 16.72 35.7434 17.12 35.7434 17.6C35.7434 18.06 35.7034 18.46 35.6234 18.8C35.7034 19.12 35.7434 19.52 35.7434 20C35.7434 20.46 35.7034 20.86 35.6234 21.2C35.7034 21.52 35.7434 21.92 35.7434 22.4C35.7434 22.86 35.7034 23.26 35.6234 23.6H36.8234ZM48.8352 16.4C48.9152 16.72 48.9552 17.12 48.9552 17.6C48.9552 18.06 48.9152 18.46 48.8352 18.8C48.9152 19.12 48.9552 19.52 48.9552 20C48.9552 20.46 48.9152 20.86 48.8352 21.2C48.9152 21.52 48.9552 21.92 48.9552 22.4C48.9552 22.86 48.9152 23.26 48.8352 23.6C48.9152 23.92 48.9552 24.32 48.9552 24.8C48.9552 25.26 48.9152 25.66 48.8352 26H47.6352C47.7152 26.32 47.7552 26.72 47.7552 27.2C47.7552 27.66 47.7152 28.06 47.6352 28.4H46.4352C46.5152 28.72 46.5552 29.12 46.5552 29.6C46.5552 30.06 46.5152 30.46 46.4352 30.8H41.6352C41.5552 30.46 41.5152 30.06 41.5152 29.6C41.5152 29.12 41.5552 28.72 41.6352 28.4H45.2352C45.1552 28.06 45.1152 27.66 45.1152 27.2C45.1152 26.72 45.1552 26.32 45.2352 26H46.4352C46.3552 25.66 46.3152 25.26 46.3152 24.8C46.3152 24.32 46.3552 23.92 46.4352 23.6H45.2352C45.1552 23.26 45.1152 22.86 45.1152 22.4C45.1152 21.92 45.1552 21.52 45.2352 21.2H46.4352C46.3552 20.86 46.3152 20.46 46.3152 20C46.3152 19.52 46.3552 19.12 46.4352 18.8C46.3552 18.46 46.3152 18.06 46.3152 17.6C46.3152 17.12 46.3552 16.72 46.4352 16.4H42.5352C42.6152 16.72 42.6552 17.12 42.6552 17.6C42.6552 18.06 42.6152 18.46 42.5352 18.8H41.6352C41.7152 19.12 41.7552 19.52 41.7552 20C41.7552 20.46 41.7152 20.86 41.6352 21.2H42.5352C42.6152 21.52 42.6552 21.92 42.6552 22.4C42.6552 22.86 42.6152 23.26 42.5352 23.6H45.2352C45.3152 23.92 45.3552 24.32 45.3552 24.8C45.3552 25.26 45.3152 25.66 45.2352 26H41.6352C41.5552 25.66 41.5152 25.26 41.5152 24.8C41.5152 24.32 41.5552 23.92 41.6352 23.6H40.1352C40.0552 23.26 40.0152 22.86 40.0152 22.4C40.0152 21.92 40.0552 21.52 40.1352 21.2H39.2352C39.1552 20.86 39.1152 20.46 39.1152 20C39.1152 19.52 39.1552 19.12 39.2352 18.8H40.1352C40.0552 18.46 40.0152 18.06 40.0152 17.6C40.0152 17.12 40.0552 16.72 40.1352 16.4H41.6352C41.5552 16.06 41.5152 15.66 41.5152 15.2C41.5152 14.72 41.5552 14.32 41.6352 14H48.8352C48.9152 14.32 48.9552 14.72 48.9552 15.2C48.9552 15.66 48.9152 16.06 48.8352 16.4ZM60.9669 17.6C60.9669 18.06 60.9269 18.46 60.8469 18.8C60.9269 19.12 60.9669 19.52 60.9669 20C60.9669 20.46 60.9269 20.86 60.8469 21.2H54.5469C54.6269 21.52 54.6669 21.92 54.6669 22.4C54.6669 22.86 54.6269 23.26 54.5469 23.6H59.6469C59.7269 23.92 59.7669 24.32 59.7669 24.8C59.7669 25.26 59.7269 25.66 59.6469 26H53.6469C53.5669 25.66 53.5269 25.26 53.5269 24.8C53.5269 24.32 53.5669 23.92 53.6469 23.6H52.1469C52.0669 23.26 52.0269 22.86 52.0269 22.4C52.0269 21.92 52.0669 21.52 52.1469 21.2H51.2469C51.1669 20.86 51.1269 20.46 51.1269 20C51.1269 19.52 51.1669 19.12 51.2469 18.8H52.1469C52.0669 18.46 52.0269 18.06 52.0269 17.6C52.0269 17.12 52.0669 16.72 52.1469 16.4H53.6469C53.5669 16.06 53.5269 15.66 53.5269 15.2C53.5269 14.72 53.5669 14.32 53.6469 14H59.6469C59.7269 14.32 59.7669 14.72 59.7669 15.2C59.7669 15.66 59.7269 16.06 59.6469 16.4H60.8469C60.9269 16.72 60.9669 17.12 60.9669 17.6ZM58.4469 18.8C58.3669 18.46 58.3269 18.06 58.3269 17.6C58.3269 17.12 58.3669 16.72 58.4469 16.4H54.5469C54.6269 16.72 54.6669 17.12 54.6669 17.6C54.6669 18.06 54.6269 18.46 54.5469 18.8H58.4469ZM83.6703 23.6C83.7503 23.92 83.7903 24.32 83.7903 24.8C83.7903 25.26 83.7503 25.66 83.6703 26H76.4703C76.3903 25.66 76.3503 25.26 76.3503 24.8C76.3503 24.32 76.3903 23.92 76.4703 23.6H78.8703C78.7903 23.26 78.7503 22.86 78.7503 22.4C78.7503 21.92 78.7903 21.52 78.8703 21.2C78.7903 20.86 78.7503 20.46 78.7503 20C78.7503 19.52 78.7903 19.12 78.8703 18.8C78.7903 18.46 78.7503 18.06 78.7503 17.6C78.7503 17.12 78.7903 16.72 78.8703 16.4C78.7903 16.06 78.7503 15.66 78.7503 15.2C78.7503 14.72 78.7903 14.32 78.8703 14H77.0703C76.9903 13.66 76.9503 13.26 76.9503 12.8C76.9503 12.32 76.9903 11.92 77.0703 11.6H78.8703C78.7903 11.26 78.7503 10.86 78.7503 10.4C78.7503 9.92 78.7903 9.52 78.8703 9.2H81.2703C81.3503 9.52 81.3903 9.92 81.3903 10.4C81.3903 10.86 81.3503 11.26 81.2703 11.6C81.3503 11.92 81.3903 12.32 81.3903 12.8C81.3903 13.26 81.3503 13.66 81.2703 14C81.3503 14.32 81.3903 14.72 81.3903 15.2C81.3903 15.66 81.3503 16.06 81.2703 16.4C81.3503 16.72 81.3903 17.12 81.3903 17.6C81.3903 18.06 81.3503 18.46 81.2703 18.8C81.3503 19.12 81.3903 19.52 81.3903 20C81.3903 20.46 81.3503 20.86 81.2703 21.2C81.3503 21.52 81.3903 21.92 81.3903 22.4C81.3903 22.86 81.3503 23.26 81.2703 23.6H83.6703ZM95.082 16.4C95.162 16.72 95.202 17.12 95.202 17.6C95.202 18.06 95.162 18.46 95.082 18.8H89.082C89.002 18.46 88.962 18.06 88.962 17.6C88.962 17.12 89.002 16.72 89.082 16.4H95.082ZM107.694 23.6C107.774 23.92 107.814 24.32 107.814 24.8C107.814 25.26 107.774 25.66 107.694 26H100.494C100.414 25.66 100.374 25.26 100.374 24.8C100.374 24.32 100.414 23.92 100.494 23.6H102.894C102.814 23.26 102.774 22.86 102.774 22.4C102.774 21.92 102.814 21.52 102.894 21.2C102.814 20.86 102.774 20.46 102.774 20C102.774 19.52 102.814 19.12 102.894 18.8C102.814 18.46 102.774 18.06 102.774 17.6C102.774 17.12 102.814 16.72 102.894 16.4C102.814 16.06 102.774 15.66 102.774 15.2C102.774 14.72 102.814 14.32 102.894 14H101.094C101.014 13.66 100.974 13.26 100.974 12.8C100.974 12.32 101.014 11.92 101.094 11.6H102.894C102.814 11.26 102.774 10.86 102.774 10.4C102.774 9.92 102.814 9.52 102.894 9.2H105.294C105.374 9.52 105.414 9.92 105.414 10.4C105.414 10.86 105.374 11.26 105.294 11.6C105.374 11.92 105.414 12.32 105.414 12.8C105.414 13.26 105.374 13.66 105.294 14C105.374 14.32 105.414 14.72 105.414 15.2C105.414 15.66 105.374 16.06 105.294 16.4C105.374 16.72 105.414 17.12 105.414 17.6C105.414 18.06 105.374 18.46 105.294 18.8C105.374 19.12 105.414 19.52 105.414 20C105.414 20.46 105.374 20.86 105.294 21.2C105.374 21.52 105.414 21.92 105.414 22.4C105.414 22.86 105.374 23.26 105.294 23.6H107.694Z" fill="black"/>
<path d="M10.8 16.8C10.88 17.12 10.92 17.52 10.92 18C10.92 18.46 10.88 18.86 10.8 19.2C10.88 19.52 10.92 19.92 10.92 20.4C10.92 20.86 10.88 21.26 10.8 21.6H9.6C9.68 21.92 9.72 22.32 9.72 22.8C9.72 23.26 9.68 23.66 9.6 24H2.4C2.32 23.66 2.28 23.26 2.28 22.8C2.28 22.32 2.32 21.92 2.4 21.6H1.2C1.12 21.26 1.08 20.86 1.08 20.4C1.08 19.92 1.12 19.52 1.2 19.2H3.6C3.68 19.52 3.72 19.92 3.72 20.4C3.72 20.86 3.68 21.26 3.6 21.6H8.4C8.32 21.26 8.28 20.86 8.28 20.4C8.28 19.92 8.32 19.52 8.4 19.2C8.32 18.86 8.28 18.46 8.28 18C8.28 17.52 8.32 17.12 8.4 16.8H2.4C2.32 16.46 2.28 16.06 2.28 15.6C2.28 15.12 2.32 14.72 2.4 14.4H1.2C1.12 14.06 1.08 13.66 1.08 13.2C1.08 12.72 1.12 12.32 1.2 12C1.12 11.66 1.08 11.26 1.08 10.8C1.08 10.32 1.12 9.92 1.2 9.6H2.4C2.32 9.26 2.28 8.86 2.28 8.4C2.28 7.92 2.32 7.52 2.4 7.2H9.6C9.68 7.52 9.72 7.92 9.72 8.4C9.72 8.86 9.68 9.26 9.6 9.6H10.8C10.88 9.92 10.92 10.32 10.92 10.8C10.92 11.26 10.88 11.66 10.8 12H8.4C8.32 11.66 8.28 11.26 8.28 10.8C8.28 10.32 8.32 9.92 8.4 9.6H3.6C3.68 9.92 3.72 10.32 3.72 10.8C3.72 11.26 3.68 11.66 3.6 12C3.68 12.32 3.72 12.72 3.72 13.2C3.72 13.66 3.68 14.06 3.6 14.4H9.6C9.68 14.72 9.72 15.12 9.72 15.6C9.72 16.06 9.68 16.46 9.6 16.8H10.8ZM21.6117 21.6C21.6917 21.92 21.7317 22.32 21.7317 22.8C21.7317 23.26 21.6917 23.66 21.6117 24H16.8117C16.7317 23.66 16.6917 23.26 16.6917 22.8C16.6917 22.32 16.7317 21.92 16.8117 21.6H15.6117C15.5317 21.26 15.4917 20.86 15.4917 20.4C15.4917 19.92 15.5317 19.52 15.6117 19.2C15.5317 18.86 15.4917 18.46 15.4917 18C15.4917 17.52 15.5317 17.12 15.6117 16.8C15.5317 16.46 15.4917 16.06 15.4917 15.6C15.4917 15.12 15.5317 14.72 15.6117 14.4H13.2117C13.1317 14.06 13.0917 13.66 13.0917 13.2C13.0917 12.72 13.1317 12.32 13.2117 12H15.6117C15.5317 11.66 15.4917 11.26 15.4917 10.8C15.4917 10.32 15.5317 9.92 15.6117 9.6C15.5317 9.26 15.4917 8.86 15.4917 8.4C15.4917 7.92 15.5317 7.52 15.6117 7.2H18.0117C18.0917 7.52 18.1317 7.92 18.1317 8.4C18.1317 8.86 18.0917 9.26 18.0117 9.6C18.0917 9.92 18.1317 10.32 18.1317 10.8C18.1317 11.26 18.0917 11.66 18.0117 12H21.6117C21.6917 12.32 21.7317 12.72 21.7317 13.2C21.7317 13.66 21.6917 14.06 21.6117 14.4H18.0117C18.0917 14.72 18.1317 15.12 18.1317 15.6C18.1317 16.06 18.0917 16.46 18.0117 16.8C18.0917 17.12 18.1317 17.52 18.1317 18C18.1317 18.46 18.0917 18.86 18.0117 19.2C18.0917 19.52 18.1317 19.92 18.1317 20.4C18.1317 20.86 18.0917 21.26 18.0117 21.6H21.6117ZM34.8234 21.6C34.9034 21.92 34.9434 22.32 34.9434 22.8C34.9434 23.26 34.9034 23.66 34.8234 24H32.4234C32.3434 23.66 32.3034 23.26 32.3034 22.8C32.3034 22.32 32.3434 21.92 32.4234 21.6H31.2234C31.1434 21.26 31.1034 20.86 31.1034 20.4C31.1034 19.92 31.1434 19.52 31.2234 19.2H27.6234C27.7034 19.52 27.7434 19.92 27.7434 20.4C27.7434 20.86 27.7034 21.26 27.6234 21.6H31.2234C31.3034 21.92 31.3434 22.32 31.3434 22.8C31.3434 23.26 31.3034 23.66 31.2234 24H26.4234C26.3434 23.66 26.3034 23.26 26.3034 22.8C26.3034 22.32 26.3434 21.92 26.4234 21.6H25.2234C25.1434 21.26 25.1034 20.86 25.1034 20.4C25.1034 19.92 25.1434 19.52 25.2234 19.2H26.4234C26.3434 18.86 26.3034 18.46 26.3034 18C26.3034 17.52 26.3434 17.12 26.4234 16.8H31.2234C31.1434 16.46 31.1034 16.06 31.1034 15.6C31.1034 15.12 31.1434 14.72 31.2234 14.4H27.0234C26.9434 14.06 26.9034 13.66 26.9034 13.2C26.9034 12.72 26.9434 12.32 27.0234 12H32.4234C32.5034 12.32 32.5434 12.72 32.5434 13.2C32.5434 13.66 32.5034 14.06 32.4234 14.4H33.6234C33.7034 14.72 33.7434 15.12 33.7434 15.6C33.7434 16.06 33.7034 16.46 33.6234 16.8C33.7034 17.12 33.7434 17.52 33.7434 18C33.7434 18.46 33.7034 18.86 33.6234 19.2C33.7034 19.52 33.7434 19.92 33.7434 20.4C33.7434 20.86 33.7034 21.26 33.6234 21.6H34.8234ZM46.8352 14.4C46.9152 14.72 46.9552 15.12 46.9552 15.6C46.9552 16.06 46.9152 16.46 46.8352 16.8C46.9152 17.12 46.9552 17.52 46.9552 18C46.9552 18.46 46.9152 18.86 46.8352 19.2C46.9152 19.52 46.9552 19.92 46.9552 20.4C46.9552 20.86 46.9152 21.26 46.8352 21.6C46.9152 21.92 46.9552 22.32 46.9552 22.8C46.9552 23.26 46.9152 23.66 46.8352 24H45.6352C45.7152 24.32 45.7552 24.72 45.7552 25.2C45.7552 25.66 45.7152 26.06 45.6352 26.4H44.4352C44.5152 26.72 44.5552 27.12 44.5552 27.6C44.5552 28.06 44.5152 28.46 44.4352 28.8H39.6352C39.5552 28.46 39.5152 28.06 39.5152 27.6C39.5152 27.12 39.5552 26.72 39.6352 26.4H43.2352C43.1552 26.06 43.1152 25.66 43.1152 25.2C43.1152 24.72 43.1552 24.32 43.2352 24H44.4352C44.3552 23.66 44.3152 23.26 44.3152 22.8C44.3152 22.32 44.3552 21.92 44.4352 21.6H43.2352C43.1552 21.26 43.1152 20.86 43.1152 20.4C43.1152 19.92 43.1552 19.52 43.2352 19.2H44.4352C44.3552 18.86 44.3152 18.46 44.3152 18C44.3152 17.52 44.3552 17.12 44.4352 16.8C44.3552 16.46 44.3152 16.06 44.3152 15.6C44.3152 15.12 44.3552 14.72 44.4352 14.4H40.5352C40.6152 14.72 40.6552 15.12 40.6552 15.6C40.6552 16.06 40.6152 16.46 40.5352 16.8H39.6352C39.7152 17.12 39.7552 17.52 39.7552 18C39.7552 18.46 39.7152 18.86 39.6352 19.2H40.5352C40.6152 19.52 40.6552 19.92 40.6552 20.4C40.6552 20.86 40.6152 21.26 40.5352 21.6H43.2352C43.3152 21.92 43.3552 22.32 43.3552 22.8C43.3552 23.26 43.3152 23.66 43.2352 24H39.6352C39.5552 23.66 39.5152 23.26 39.5152 22.8C39.5152 22.32 39.5552 21.92 39.6352 21.6H38.1352C38.0552 21.26 38.0152 20.86 38.0152 20.4C38.0152 19.92 38.0552 19.52 38.1352 19.2H37.2352C37.1552 18.86 37.1152 18.46 37.1152 18C37.1152 17.52 37.1552 17.12 37.2352 16.8H38.1352C38.0552 16.46 38.0152 16.06 38.0152 15.6C38.0152 15.12 38.0552 14.72 38.1352 14.4H39.6352C39.5552 14.06 39.5152 13.66 39.5152 13.2C39.5152 12.72 39.5552 12.32 39.6352 12H46.8352C46.9152 12.32 46.9552 12.72 46.9552 13.2C46.9552 13.66 46.9152 14.06 46.8352 14.4ZM58.9669 15.6C58.9669 16.06 58.9269 16.46 58.8469 16.8C58.9269 17.12 58.9669 17.52 58.9669 18C58.9669 18.46 58.9269 18.86 58.8469 19.2H52.5469C52.6269 19.52 52.6669 19.92 52.6669 20.4C52.6669 20.86 52.6269 21.26 52.5469 21.6H57.6469C57.7269 21.92 57.7669 22.32 57.7669 22.8C57.7669 23.26 57.7269 23.66 57.6469 24H51.6469C51.5669 23.66 51.5269 23.26 51.5269 22.8C51.5269 22.32 51.5669 21.92 51.6469 21.6H50.1469C50.0669 21.26 50.0269 20.86 50.0269 20.4C50.0269 19.92 50.0669 19.52 50.1469 19.2H49.2469C49.1669 18.86 49.1269 18.46 49.1269 18C49.1269 17.52 49.1669 17.12 49.2469 16.8H50.1469C50.0669 16.46 50.0269 16.06 50.0269 15.6C50.0269 15.12 50.0669 14.72 50.1469 14.4H51.6469C51.5669 14.06 51.5269 13.66 51.5269 13.2C51.5269 12.72 51.5669 12.32 51.6469 12H57.6469C57.7269 12.32 57.7669 12.72 57.7669 13.2C57.7669 13.66 57.7269 14.06 57.6469 14.4H58.8469C58.9269 14.72 58.9669 15.12 58.9669 15.6ZM56.4469 16.8C56.3669 16.46 56.3269 16.06 56.3269 15.6C56.3269 15.12 56.3669 14.72 56.4469 14.4H52.5469C52.6269 14.72 52.6669 15.12 52.6669 15.6C52.6669 16.06 52.6269 16.46 52.5469 16.8H56.4469ZM81.6703 21.6C81.7503 21.92 81.7903 22.32 81.7903 22.8C81.7903 23.26 81.7503 23.66 81.6703 24H74.4703C74.3903 23.66 74.3503 23.26 74.3503 22.8C74.3503 22.32 74.3903 21.92 74.4703 21.6H76.8703C76.7903 21.26 76.7503 20.86 76.7503 20.4C76.7503 19.92 76.7903 19.52 76.8703 19.2C76.7903 18.86 76.7503 18.46 76.7503 18C76.7503 17.52 76.7903 17.12 76.8703 16.8C76.7903 16.46 76.7503 16.06 76.7503 15.6C76.7503 15.12 76.7903 14.72 76.8703 14.4C76.7903 14.06 76.7503 13.66 76.7503 13.2C76.7503 12.72 76.7903 12.32 76.8703 12H75.0703C74.9903 11.66 74.9503 11.26 74.9503 10.8C74.9503 10.32 74.9903 9.92 75.0703 9.6H76.8703C76.7903 9.26 76.7503 8.86 76.7503 8.4C76.7503 7.92 76.7903 7.52 76.8703 7.2H79.2703C79.3503 7.52 79.3903 7.92 79.3903 8.4C79.3903 8.86 79.3503 9.26 79.2703 9.6C79.3503 9.92 79.3903 10.32 79.3903 10.8C79.3903 11.26 79.3503 11.66 79.2703 12C79.3503 12.32 79.3903 12.72 79.3903 13.2C79.3903 13.66 79.3503 14.06 79.2703 14.4C79.3503 14.72 79.3903 15.12 79.3903 15.6C79.3903 16.06 79.3503 16.46 79.2703 16.8C79.3503 17.12 79.3903 17.52 79.3903 18C79.3903 18.46 79.3503 18.86 79.2703 19.2C79.3503 19.52 79.3903 19.92 79.3903 20.4C79.3903 20.86 79.3503 21.26 79.2703 21.6H81.6703ZM93.082 14.4C93.162 14.72 93.202 15.12 93.202 15.6C93.202 16.06 93.162 16.46 93.082 16.8H87.082C87.002 16.46 86.962 16.06 86.962 15.6C86.962 15.12 87.002 14.72 87.082 14.4H93.082ZM105.694 21.6C105.774 21.92 105.814 22.32 105.814 22.8C105.814 23.26 105.774 23.66 105.694 24H98.4938C98.4138 23.66 98.3738 23.26 98.3738 22.8C98.3738 22.32 98.4138 21.92 98.4938 21.6H100.894C100.814 21.26 100.774 20.86 100.774 20.4C100.774 19.92 100.814 19.52 100.894 19.2C100.814 18.86 100.774 18.46 100.774 18C100.774 17.52 100.814 17.12 100.894 16.8C100.814 16.46 100.774 16.06 100.774 15.6C100.774 15.12 100.814 14.72 100.894 14.4C100.814 14.06 100.774 13.66 100.774 13.2C100.774 12.72 100.814 12.32 100.894 12H99.0938C99.0138 11.66 98.9738 11.26 98.9738 10.8C98.9738 10.32 99.0138 9.92 99.0938 9.6H100.894C100.814 9.26 100.774 8.86 100.774 8.4C100.774 7.92 100.814 7.52 100.894 7.2H103.294C103.374 7.52 103.414 7.92 103.414 8.4C103.414 8.86 103.374 9.26 103.294 9.6C103.374 9.92 103.414 10.32 103.414 10.8C103.414 11.26 103.374 11.66 103.294 12C103.374 12.32 103.414 12.72 103.414 13.2C103.414 13.66 103.374 14.06 103.294 14.4C103.374 14.72 103.414 15.12 103.414 15.6C103.414 16.06 103.374 16.46 103.294 16.8C103.374 17.12 103.414 17.52 103.414 18C103.414 18.46 103.374 18.86 103.294 19.2C103.374 19.52 103.414 19.92 103.414 20.4C103.414 20.86 103.374 21.26 103.294 21.6H105.694Z" fill="white"/>
</svg>
