<svg width="98" height="32" viewBox="0 0 98 32" fill="none" xmlns="http://www.w3.org/2000/svg">
<path d="M10.92 10.4C10.92 10.86 10.88 11.26 10.8 11.6H7.2C7.28 11.92 7.32 12.32 7.32 12.8C7.32 13.26 7.28 13.66 7.2 14C7.28 14.32 7.32 14.72 7.32 15.2C7.32 15.66 7.28 16.06 7.2 16.4C7.28 16.72 7.32 17.12 7.32 17.6C7.32 18.06 7.28 18.46 7.2 18.8C7.28 19.12 7.32 19.52 7.32 20C7.32 20.46 7.28 20.86 7.2 21.2C7.28 21.52 7.32 21.92 7.32 22.4C7.32 22.86 7.28 23.26 7.2 23.6C7.28 23.92 7.32 24.32 7.32 24.8C7.32 25.26 7.28 25.66 7.2 26H4.8C4.72 25.66 4.68 25.26 4.68 24.8C4.68 24.32 4.72 23.92 4.8 23.6C4.72 23.26 4.68 22.86 4.68 22.4C4.68 21.92 4.72 21.52 4.8 21.2C4.72 20.86 4.68 20.46 4.68 20C4.68 19.52 4.72 19.12 4.8 18.8C4.72 18.46 4.68 18.06 4.68 17.6C4.68 17.12 4.72 16.72 4.8 16.4C4.72 16.06 4.68 15.66 4.68 15.2C4.68 14.72 4.72 14.32 4.8 14C4.72 13.66 4.68 13.26 4.68 12.8C4.68 12.32 4.72 11.92 4.8 11.6H1.2C1.12 11.26 1.08 10.86 1.08 10.4C1.08 9.92 1.12 9.52 1.2 9.2H10.8C10.88 9.52 10.92 9.92 10.92 10.4ZM16.8117 11.6C16.7317 11.26 16.6917 10.86 16.6917 10.4C16.6917 9.92 16.7317 9.52 16.8117 9.2H19.2117C19.2917 9.52 19.3317 9.92 19.3317 10.4C19.3317 10.86 19.2917 11.26 19.2117 11.6H16.8117ZM21.6117 23.6C21.6917 23.92 21.7317 24.32 21.7317 24.8C21.7317 25.26 21.6917 25.66 21.6117 26H14.4117C14.3317 25.66 14.2917 25.26 14.2917 24.8C14.2917 24.32 14.3317 23.92 14.4117 23.6H16.8117C16.7317 23.26 16.6917 22.86 16.6917 22.4C16.6917 21.92 16.7317 21.52 16.8117 21.2C16.7317 20.86 16.6917 20.46 16.6917 20C16.6917 19.52 16.7317 19.12 16.8117 18.8C16.7317 18.46 16.6917 18.06 16.6917 17.6C16.6917 17.12 16.7317 16.72 16.8117 16.4H15.0117C14.9317 16.06 14.8917 15.66 14.8917 15.2C14.8917 14.72 14.9317 14.32 15.0117 14H19.2117C19.2917 14.32 19.3317 14.72 19.3317 15.2C19.3317 15.66 19.2917 16.06 19.2117 16.4C19.2917 16.72 19.3317 17.12 19.3317 17.6C19.3317 18.06 19.2917 18.46 19.2117 18.8C19.2917 19.12 19.3317 19.52 19.3317 20C19.3317 20.46 19.2917 20.86 19.2117 21.2C19.2917 21.52 19.3317 21.92 19.3317 22.4C19.3317 22.86 19.2917 23.26 19.2117 23.6H21.6117ZM26.8434 15.2C26.8434 15.66 26.8034 16.06 26.7234 16.4H27.6234C27.7034 16.72 27.7434 17.12 27.7434 17.6C27.7434 18.06 27.7034 18.46 27.6234 18.8C27.7034 19.12 27.7434 19.52 27.7434 20C27.7434 20.46 27.7034 20.86 27.6234 21.2C27.7034 21.52 27.7434 21.92 27.7434 22.4C27.7434 22.86 27.7034 23.26 27.6234 23.6C27.7034 23.92 27.7434 24.32 27.7434 24.8C27.7434 25.26 27.7034 25.66 27.6234 26H25.2234C25.1434 25.66 25.1034 25.26 25.1034 24.8C25.1034 24.32 25.1434 23.92 25.2234 23.6C25.1434 23.26 25.1034 22.86 25.1034 22.4C25.1034 21.92 25.1434 21.52 25.2234 21.2C25.1434 20.86 25.1034 20.46 25.1034 20C25.1034 19.52 25.1434 19.12 25.2234 18.8C25.1434 18.46 25.1034 18.06 25.1034 17.6C25.1034 17.12 25.1434 16.72 25.2234 16.4C25.1434 16.06 25.1034 15.66 25.1034 15.2C25.1034 14.72 25.1434 14.32 25.2234 14H26.7234C26.8034 14.32 26.8434 14.72 26.8434 15.2ZM30.1434 15.2C30.1434 15.66 30.1034 16.06 30.0234 16.4H30.9234C31.0034 16.72 31.0434 17.12 31.0434 17.6C31.0434 18.06 31.0034 18.46 30.9234 18.8C31.0034 19.12 31.0434 19.52 31.0434 20C31.0434 20.46 31.0034 20.86 30.9234 21.2C31.0034 21.52 31.0434 21.92 31.0434 22.4C31.0434 22.86 31.0034 23.26 30.9234 23.6C31.0034 23.92 31.0434 24.32 31.0434 24.8C31.0434 25.26 31.0034 25.66 30.9234 26H29.1234C29.0434 25.66 29.0034 25.26 29.0034 24.8C29.0034 24.32 29.0434 23.92 29.1234 23.6C29.0434 23.26 29.0034 22.86 29.0034 22.4C29.0034 21.92 29.0434 21.52 29.1234 21.2C29.0434 20.86 29.0034 20.46 29.0034 20C29.0034 19.52 29.0434 19.12 29.1234 18.8C29.0434 18.46 29.0034 18.06 29.0034 17.6C29.0034 17.12 29.0434 16.72 29.1234 16.4H27.6234C27.5434 16.06 27.5034 15.66 27.5034 15.2C27.5034 14.72 27.5434 14.32 27.6234 14H30.0234C30.1034 14.32 30.1434 14.72 30.1434 15.2ZM34.8234 18.8C34.9034 19.12 34.9434 19.52 34.9434 20C34.9434 20.46 34.9034 20.86 34.8234 21.2C34.9034 21.52 34.9434 21.92 34.9434 22.4C34.9434 22.86 34.9034 23.26 34.8234 23.6C34.9034 23.92 34.9434 24.32 34.9434 24.8C34.9434 25.26 34.9034 25.66 34.8234 26H32.4234C32.3434 25.66 32.3034 25.26 32.3034 24.8C32.3034 24.32 32.3434 23.92 32.4234 23.6C32.3434 23.26 32.3034 22.86 32.3034 22.4C32.3034 21.92 32.3434 21.52 32.4234 21.2C32.3434 20.86 32.3034 20.46 32.3034 20C32.3034 19.52 32.3434 19.12 32.4234 18.8C32.3434 18.46 32.3034 18.06 32.3034 17.6C32.3034 17.12 32.3434 16.72 32.4234 16.4H30.9234C30.8434 16.06 30.8034 15.66 30.8034 15.2C30.8034 14.72 30.8434 14.32 30.9234 14H33.6234C33.7034 14.32 33.7434 14.72 33.7434 15.2C33.7434 15.66 33.7034 16.06 33.6234 16.4H34.8234C34.9034 16.72 34.9434 17.12 34.9434 17.6C34.9434 18.06 34.9034 18.46 34.8234 18.8ZM46.9552 17.6C46.9552 18.06 46.9152 18.46 46.8352 18.8C46.9152 19.12 46.9552 19.52 46.9552 20C46.9552 20.46 46.9152 20.86 46.8352 21.2H40.5352C40.6152 21.52 40.6552 21.92 40.6552 22.4C40.6552 22.86 40.6152 23.26 40.5352 23.6H45.6352C45.7152 23.92 45.7552 24.32 45.7552 24.8C45.7552 25.26 45.7152 25.66 45.6352 26H39.6352C39.5552 25.66 39.5152 25.26 39.5152 24.8C39.5152 24.32 39.5552 23.92 39.6352 23.6H38.1352C38.0552 23.26 38.0152 22.86 38.0152 22.4C38.0152 21.92 38.0552 21.52 38.1352 21.2H37.2352C37.1552 20.86 37.1152 20.46 37.1152 20C37.1152 19.52 37.1552 19.12 37.2352 18.8H38.1352C38.0552 18.46 38.0152 18.06 38.0152 17.6C38.0152 17.12 38.0552 16.72 38.1352 16.4H39.6352C39.5552 16.06 39.5152 15.66 39.5152 15.2C39.5152 14.72 39.5552 14.32 39.6352 14H45.6352C45.7152 14.32 45.7552 14.72 45.7552 15.2C45.7552 15.66 45.7152 16.06 45.6352 16.4H46.8352C46.9152 16.72 46.9552 17.12 46.9552 17.6ZM44.4352 18.8C44.3552 18.46 44.3152 18.06 44.3152 17.6C44.3152 17.12 44.3552 16.72 44.4352 16.4H40.5352C40.6152 16.72 40.6552 17.12 40.6552 17.6C40.6552 18.06 40.6152 18.46 40.5352 18.8H44.4352ZM67.6786 10.4C67.6786 10.86 67.6386 11.26 67.5586 11.6H64.5586C64.4786 11.26 64.4386 10.86 64.4386 10.4C64.4386 9.92 64.4786 9.52 64.5586 9.2H67.5586C67.6386 9.52 67.6786 9.92 67.6786 10.4ZM64.5586 21.2C64.6386 21.52 64.6786 21.92 64.6786 22.4C64.6786 22.86 64.6386 23.26 64.5586 23.6H63.0586C62.9786 23.26 62.9386 22.86 62.9386 22.4C62.9386 21.92 62.9786 21.52 63.0586 21.2H62.1586C62.0786 20.86 62.0386 20.46 62.0386 20C62.0386 19.52 62.0786 19.12 62.1586 18.8C62.0786 18.46 62.0386 18.06 62.0386 17.6C62.0386 17.12 62.0786 16.72 62.1586 16.4C62.0786 16.06 62.0386 15.66 62.0386 15.2C62.0386 14.72 62.0786 14.32 62.1586 14H63.0586C62.9786 13.66 62.9386 13.26 62.9386 12.8C62.9386 12.32 62.9786 11.92 63.0586 11.6H64.5586C64.6386 11.92 64.6786 12.32 64.6786 12.8C64.6786 13.26 64.6386 13.66 64.5586 14C64.6386 14.32 64.6786 14.72 64.6786 15.2C64.6786 15.66 64.6386 16.06 64.5586 16.4C64.6386 16.72 64.6786 17.12 64.6786 17.6C64.6786 18.06 64.6386 18.46 64.5586 18.8C64.6386 19.12 64.6786 19.52 64.6786 20C64.6786 20.46 64.6386 20.86 64.5586 21.2ZM69.9586 16.4C70.0386 16.72 70.0786 17.12 70.0786 17.6C70.0786 18.06 70.0386 18.46 69.9586 18.8C70.0386 19.12 70.0786 19.52 70.0786 20C70.0786 20.46 70.0386 20.86 69.9586 21.2H69.0586C69.1386 21.52 69.1786 21.92 69.1786 22.4C69.1786 22.86 69.1386 23.26 69.0586 23.6H67.5586C67.4786 23.26 67.4386 22.86 67.4386 22.4C67.4386 21.92 67.4786 21.52 67.5586 21.2C67.4786 20.86 67.4386 20.46 67.4386 20C67.4386 19.52 67.4786 19.12 67.5586 18.8C67.4786 18.46 67.4386 18.06 67.4386 17.6C67.4386 17.12 67.4786 16.72 67.5586 16.4C67.4786 16.06 67.4386 15.66 67.4386 15.2C67.4386 14.72 67.4786 14.32 67.5586 14C67.4786 13.66 67.4386 13.26 67.4386 12.8C67.4386 12.32 67.4786 11.92 67.5586 11.6H69.0586C69.1386 11.92 69.1786 12.32 69.1786 12.8C69.1786 13.26 69.1386 13.66 69.0586 14H69.9586C70.0386 14.32 70.0786 14.72 70.0786 15.2C70.0786 15.66 70.0386 16.06 69.9586 16.4ZM64.4386 24.8C64.4386 24.32 64.4786 23.92 64.5586 23.6H67.5586C67.6386 23.92 67.6786 24.32 67.6786 24.8C67.6786 25.26 67.6386 25.66 67.5586 26H64.5586C64.4786 25.66 64.4386 25.26 64.4386 24.8ZM79.6903 10.4C79.6903 10.86 79.6503 11.26 79.5703 11.6H76.5703C76.4903 11.26 76.4503 10.86 76.4503 10.4C76.4503 9.92 76.4903 9.52 76.5703 9.2H79.5703C79.6503 9.52 79.6903 9.92 79.6903 10.4ZM76.5703 21.2C76.6503 21.52 76.6903 21.92 76.6903 22.4C76.6903 22.86 76.6503 23.26 76.5703 23.6H75.0703C74.9903 23.26 74.9503 22.86 74.9503 22.4C74.9503 21.92 74.9903 21.52 75.0703 21.2H74.1703C74.0903 20.86 74.0503 20.46 74.0503 20C74.0503 19.52 74.0903 19.12 74.1703 18.8C74.0903 18.46 74.0503 18.06 74.0503 17.6C74.0503 17.12 74.0903 16.72 74.1703 16.4C74.0903 16.06 74.0503 15.66 74.0503 15.2C74.0503 14.72 74.0903 14.32 74.1703 14H75.0703C74.9903 13.66 74.9503 13.26 74.9503 12.8C74.9503 12.32 74.9903 11.92 75.0703 11.6H76.5703C76.6503 11.92 76.6903 12.32 76.6903 12.8C76.6903 13.26 76.6503 13.66 76.5703 14C76.6503 14.32 76.6903 14.72 76.6903 15.2C76.6903 15.66 76.6503 16.06 76.5703 16.4C76.6503 16.72 76.6903 17.12 76.6903 17.6C76.6903 18.06 76.6503 18.46 76.5703 18.8C76.6503 19.12 76.6903 19.52 76.6903 20C76.6903 20.46 76.6503 20.86 76.5703 21.2ZM81.9703 16.4C82.0503 16.72 82.0903 17.12 82.0903 17.6C82.0903 18.06 82.0503 18.46 81.9703 18.8C82.0503 19.12 82.0903 19.52 82.0903 20C82.0903 20.46 82.0503 20.86 81.9703 21.2H81.0703C81.1503 21.52 81.1903 21.92 81.1903 22.4C81.1903 22.86 81.1503 23.26 81.0703 23.6H79.5703C79.4903 23.26 79.4503 22.86 79.4503 22.4C79.4503 21.92 79.4903 21.52 79.5703 21.2C79.4903 20.86 79.4503 20.46 79.4503 20C79.4503 19.52 79.4903 19.12 79.5703 18.8C79.4903 18.46 79.4503 18.06 79.4503 17.6C79.4503 17.12 79.4903 16.72 79.5703 16.4C79.4903 16.06 79.4503 15.66 79.4503 15.2C79.4503 14.72 79.4903 14.32 79.5703 14C79.4903 13.66 79.4503 13.26 79.4503 12.8C79.4503 12.32 79.4903 11.92 79.5703 11.6H81.0703C81.1503 11.92 81.1903 12.32 81.1903 12.8C81.1903 13.26 81.1503 13.66 81.0703 14H81.9703C82.0503 14.32 82.0903 14.72 82.0903 15.2C82.0903 15.66 82.0503 16.06 81.9703 16.4ZM76.4503 24.8C76.4503 24.32 76.4903 23.92 76.5703 23.6H79.5703C79.6503 23.92 79.6903 24.32 79.6903 24.8C79.6903 25.26 79.6503 25.66 79.5703 26H76.5703C76.4903 25.66 76.4503 25.26 76.4503 24.8ZM91.702 10.4C91.702 10.86 91.662 11.26 91.582 11.6H88.582C88.502 11.26 88.462 10.86 88.462 10.4C88.462 9.92 88.502 9.52 88.582 9.2H91.582C91.662 9.52 91.702 9.92 91.702 10.4ZM88.582 21.2C88.662 21.52 88.702 21.92 88.702 22.4C88.702 22.86 88.662 23.26 88.582 23.6H87.082C87.002 23.26 86.962 22.86 86.962 22.4C86.962 21.92 87.002 21.52 87.082 21.2H86.182C86.102 20.86 86.062 20.46 86.062 20C86.062 19.52 86.102 19.12 86.182 18.8C86.102 18.46 86.062 18.06 86.062 17.6C86.062 17.12 86.102 16.72 86.182 16.4C86.102 16.06 86.062 15.66 86.062 15.2C86.062 14.72 86.102 14.32 86.182 14H87.082C87.002 13.66 86.962 13.26 86.962 12.8C86.962 12.32 87.002 11.92 87.082 11.6H88.582C88.662 11.92 88.702 12.32 88.702 12.8C88.702 13.26 88.662 13.66 88.582 14C88.662 14.32 88.702 14.72 88.702 15.2C88.702 15.66 88.662 16.06 88.582 16.4C88.662 16.72 88.702 17.12 88.702 17.6C88.702 18.06 88.662 18.46 88.582 18.8C88.662 19.12 88.702 19.52 88.702 20C88.702 20.46 88.662 20.86 88.582 21.2ZM93.982 16.4C94.062 16.72 94.102 17.12 94.102 17.6C94.102 18.06 94.062 18.46 93.982 18.8C94.062 19.12 94.102 19.52 94.102 20C94.102 20.46 94.062 20.86 93.982 21.2H93.082C93.162 21.52 93.202 21.92 93.202 22.4C93.202 22.86 93.162 23.26 93.082 23.6H91.582C91.502 23.26 91.462 22.86 91.462 22.4C91.462 21.92 91.502 21.52 91.582 21.2C91.502 20.86 91.462 20.46 91.462 20C91.462 19.52 91.502 19.12 91.582 18.8C91.502 18.46 91.462 18.06 91.462 17.6C91.462 17.12 91.502 16.72 91.582 16.4C91.502 16.06 91.462 15.66 91.462 15.2C91.462 14.72 91.502 14.32 91.582 14C91.502 13.66 91.462 13.26 91.462 12.8C91.462 12.32 91.502 11.92 91.582 11.6H93.082C93.162 11.92 93.202 12.32 93.202 12.8C93.202 13.26 93.162 13.66 93.082 14H93.982C94.062 14.32 94.102 14.72 94.102 15.2C94.102 15.66 94.062 16.06 93.982 16.4ZM88.462 24.8C88.462 24.32 88.502 23.92 88.582 23.6H91.582C91.662 23.92 91.702 24.32 91.702 24.8C91.702 25.26 91.662 25.66 91.582 26H88.582C88.502 25.66 88.462 25.26 88.462 24.8Z" fill="black"/>
<path d="M11.92 10.4C11.92 10.86 11.88 11.26 11.8 11.6H8.2C8.28 11.92 8.32 12.32 8.32 12.8C8.32 13.26 8.28 13.66 8.2 14C8.28 14.32 8.32 14.72 8.32 15.2C8.32 15.66 8.28 16.06 8.2 16.4C8.28 16.72 8.32 17.12 8.32 17.6C8.32 18.06 8.28 18.46 8.2 18.8C8.28 19.12 8.32 19.52 8.32 20C8.32 20.46 8.28 20.86 8.2 21.2C8.28 21.52 8.32 21.92 8.32 22.4C8.32 22.86 8.28 23.26 8.2 23.6C8.28 23.92 8.32 24.32 8.32 24.8C8.32 25.26 8.28 25.66 8.2 26H5.8C5.72 25.66 5.68 25.26 5.68 24.8C5.68 24.32 5.72 23.92 5.8 23.6C5.72 23.26 5.68 22.86 5.68 22.4C5.68 21.92 5.72 21.52 5.8 21.2C5.72 20.86 5.68 20.46 5.68 20C5.68 19.52 5.72 19.12 5.8 18.8C5.72 18.46 5.68 18.06 5.68 17.6C5.68 17.12 5.72 16.72 5.8 16.4C5.72 16.06 5.68 15.66 5.68 15.2C5.68 14.72 5.72 14.32 5.8 14C5.72 13.66 5.68 13.26 5.68 12.8C5.68 12.32 5.72 11.92 5.8 11.6H2.2C2.12 11.26 2.08 10.86 2.08 10.4C2.08 9.92 2.12 9.52 2.2 9.2H11.8C11.88 9.52 11.92 9.92 11.92 10.4ZM17.8117 11.6C17.7317 11.26 17.6917 10.86 17.6917 10.4C17.6917 9.92 17.7317 9.52 17.8117 9.2H20.2117C20.2917 9.52 20.3317 9.92 20.3317 10.4C20.3317 10.86 20.2917 11.26 20.2117 11.6H17.8117ZM22.6117 23.6C22.6917 23.92 22.7317 24.32 22.7317 24.8C22.7317 25.26 22.6917 25.66 22.6117 26H15.4117C15.3317 25.66 15.2917 25.26 15.2917 24.8C15.2917 24.32 15.3317 23.92 15.4117 23.6H17.8117C17.7317 23.26 17.6917 22.86 17.6917 22.4C17.6917 21.92 17.7317 21.52 17.8117 21.2C17.7317 20.86 17.6917 20.46 17.6917 20C17.6917 19.52 17.7317 19.12 17.8117 18.8C17.7317 18.46 17.6917 18.06 17.6917 17.6C17.6917 17.12 17.7317 16.72 17.8117 16.4H16.0117C15.9317 16.06 15.8917 15.66 15.8917 15.2C15.8917 14.72 15.9317 14.32 16.0117 14H20.2117C20.2917 14.32 20.3317 14.72 20.3317 15.2C20.3317 15.66 20.2917 16.06 20.2117 16.4C20.2917 16.72 20.3317 17.12 20.3317 17.6C20.3317 18.06 20.2917 18.46 20.2117 18.8C20.2917 19.12 20.3317 19.52 20.3317 20C20.3317 20.46 20.2917 20.86 20.2117 21.2C20.2917 21.52 20.3317 21.92 20.3317 22.4C20.3317 22.86 20.2917 23.26 20.2117 23.6H22.6117ZM27.8434 15.2C27.8434 15.66 27.8034 16.06 27.7234 16.4H28.6234C28.7034 16.72 28.7434 17.12 28.7434 17.6C28.7434 18.06 28.7034 18.46 28.6234 18.8C28.7034 19.12 28.7434 19.52 28.7434 20C28.7434 20.46 28.7034 20.86 28.6234 21.2C28.7034 21.52 28.7434 21.92 28.7434 22.4C28.7434 22.86 28.7034 23.26 28.6234 23.6C28.7034 23.92 28.7434 24.32 28.7434 24.8C28.7434 25.26 28.7034 25.66 28.6234 26H26.2234C26.1434 25.66 26.1034 25.26 26.1034 24.8C26.1034 24.32 26.1434 23.92 26.2234 23.6C26.1434 23.26 26.1034 22.86 26.1034 22.4C26.1034 21.92 26.1434 21.52 26.2234 21.2C26.1434 20.86 26.1034 20.46 26.1034 20C26.1034 19.52 26.1434 19.12 26.2234 18.8C26.1434 18.46 26.1034 18.06 26.1034 17.6C26.1034 17.12 26.1434 16.72 26.2234 16.4C26.1434 16.06 26.1034 15.66 26.1034 15.2C26.1034 14.72 26.1434 14.32 26.2234 14H27.7234C27.8034 14.32 27.8434 14.72 27.8434 15.2ZM31.1434 15.2C31.1434 15.66 31.1034 16.06 31.0234 16.4H31.9234C32.0034 16.72 32.0434 17.12 32.0434 17.6C32.0434 18.06 32.0034 18.46 31.9234 18.8C32.0034 19.12 32.0434 19.52 32.0434 20C32.0434 20.46 32.0034 20.86 31.9234 21.2C32.0034 21.52 32.0434 21.92 32.0434 22.4C32.0434 22.86 32.0034 23.26 31.9234 23.6C32.0034 23.92 32.0434 24.32 32.0434 24.8C32.0434 25.26 32.0034 25.66 31.9234 26H30.1234C30.0434 25.66 30.0034 25.26 30.0034 24.8C30.0034 24.32 30.0434 23.92 30.1234 23.6C30.0434 23.26 30.0034 22.86 30.0034 22.4C30.0034 21.92 30.0434 21.52 30.1234 21.2C30.0434 20.86 30.0034 20.46 30.0034 20C30.0034 19.52 30.0434 19.12 30.1234 18.8C30.0434 18.46 30.0034 18.06 30.0034 17.6C30.0034 17.12 30.0434 16.72 30.1234 16.4H28.6234C28.5434 16.06 28.5034 15.66 28.5034 15.2C28.5034 14.72 28.5434 14.32 28.6234 14H31.0234C31.1034 14.32 31.1434 14.72 31.1434 15.2ZM35.8234 18.8C35.9034 19.12 35.9434 19.52 35.9434 20C35.9434 20.46 35.9034 20.86 35.8234 21.2C35.9034 21.52 35.9434 21.92 35.9434 22.4C35.9434 22.86 35.9034 23.26 35.8234 23.6C35.9034 23.92 35.9434 24.32 35.9434 24.8C35.9434 25.26 35.9034 25.66 35.8234 26H33.4234C33.3434 25.66 33.3034 25.26 33.3034 24.8C33.3034 24.32 33.3434 23.92 33.4234 23.6C33.3434 23.26 33.3034 22.86 33.3034 22.4C33.3034 21.92 33.3434 21.52 33.4234 21.2C33.3434 20.86 33.3034 20.46 33.3034 20C33.3034 19.52 33.3434 19.12 33.4234 18.8C33.3434 18.46 33.3034 18.06 33.3034 17.6C33.3034 17.12 33.3434 16.72 33.4234 16.4H31.9234C31.8434 16.06 31.8034 15.66 31.8034 15.2C31.8034 14.72 31.8434 14.32 31.9234 14H34.6234C34.7034 14.32 34.7434 14.72 34.7434 15.2C34.7434 15.66 34.7034 16.06 34.6234 16.4H35.8234C35.9034 16.72 35.9434 17.12 35.9434 17.6C35.9434 18.06 35.9034 18.46 35.8234 18.8ZM47.9552 17.6C47.9552 18.06 47.9152 18.46 47.8352 18.8C47.9152 19.12 47.9552 19.52 47.9552 20C47.9552 20.46 47.9152 20.86 47.8352 21.2H41.5352C41.6152 21.52 41.6552 21.92 41.6552 22.4C41.6552 22.86 41.6152 23.26 41.5352 23.6H46.6352C46.7152 23.92 46.7552 24.32 46.7552 24.8C46.7552 25.26 46.7152 25.66 46.6352 26H40.6352C40.5552 25.66 40.5152 25.26 40.5152 24.8C40.5152 24.32 40.5552 23.92 40.6352 23.6H39.1352C39.0552 23.26 39.0152 22.86 39.0152 22.4C39.0152 21.92 39.0552 21.52 39.1352 21.2H38.2352C38.1552 20.86 38.1152 20.46 38.1152 20C38.1152 19.52 38.1552 19.12 38.2352 18.8H39.1352C39.0552 18.46 39.0152 18.06 39.0152 17.6C39.0152 17.12 39.0552 16.72 39.1352 16.4H40.6352C40.5552 16.06 40.5152 15.66 40.5152 15.2C40.5152 14.72 40.5552 14.32 40.6352 14H46.6352C46.7152 14.32 46.7552 14.72 46.7552 15.2C46.7552 15.66 46.7152 16.06 46.6352 16.4H47.8352C47.9152 16.72 47.9552 17.12 47.9552 17.6ZM45.4352 18.8C45.3552 18.46 45.3152 18.06 45.3152 17.6C45.3152 17.12 45.3552 16.72 45.4352 16.4H41.5352C41.6152 16.72 41.6552 17.12 41.6552 17.6C41.6552 18.06 41.6152 18.46 41.5352 18.8H45.4352ZM68.6786 10.4C68.6786 10.86 68.6386 11.26 68.5586 11.6H65.5586C65.4786 11.26 65.4386 10.86 65.4386 10.4C65.4386 9.92 65.4786 9.52 65.5586 9.2H68.5586C68.6386 9.52 68.6786 9.92 68.6786 10.4ZM65.5586 21.2C65.6386 21.52 65.6786 21.92 65.6786 22.4C65.6786 22.86 65.6386 23.26 65.5586 23.6H64.0586C63.9786 23.26 63.9386 22.86 63.9386 22.4C63.9386 21.92 63.9786 21.52 64.0586 21.2H63.1586C63.0786 20.86 63.0386 20.46 63.0386 20C63.0386 19.52 63.0786 19.12 63.1586 18.8C63.0786 18.46 63.0386 18.06 63.0386 17.6C63.0386 17.12 63.0786 16.72 63.1586 16.4C63.0786 16.06 63.0386 15.66 63.0386 15.2C63.0386 14.72 63.0786 14.32 63.1586 14H64.0586C63.9786 13.66 63.9386 13.26 63.9386 12.8C63.9386 12.32 63.9786 11.92 64.0586 11.6H65.5586C65.6386 11.92 65.6786 12.32 65.6786 12.8C65.6786 13.26 65.6386 13.66 65.5586 14C65.6386 14.32 65.6786 14.72 65.6786 15.2C65.6786 15.66 65.6386 16.06 65.5586 16.4C65.6386 16.72 65.6786 17.12 65.6786 17.6C65.6786 18.06 65.6386 18.46 65.5586 18.8C65.6386 19.12 65.6786 19.52 65.6786 20C65.6786 20.46 65.6386 20.86 65.5586 21.2ZM70.9586 16.4C71.0386 16.72 71.0786 17.12 71.0786 17.6C71.0786 18.06 71.0386 18.46 70.9586 18.8C71.0386 19.12 71.0786 19.52 71.0786 20C71.0786 20.46 71.0386 20.86 70.9586 21.2H70.0586C70.1386 21.52 70.1786 21.92 70.1786 22.4C70.1786 22.86 70.1386 23.26 70.0586 23.6H68.5586C68.4786 23.26 68.4386 22.86 68.4386 22.4C68.4386 21.92 68.4786 21.52 68.5586 21.2C68.4786 20.86 68.4386 20.46 68.4386 20C68.4386 19.52 68.4786 19.12 68.5586 18.8C68.4786 18.46 68.4386 18.06 68.4386 17.6C68.4386 17.12 68.4786 16.72 68.5586 16.4C68.4786 16.06 68.4386 15.66 68.4386 15.2C68.4386 14.72 68.4786 14.32 68.5586 14C68.4786 13.66 68.4386 13.26 68.4386 12.8C68.4386 12.32 68.4786 11.92 68.5586 11.6H70.0586C70.1386 11.92 70.1786 12.32 70.1786 12.8C70.1786 13.26 70.1386 13.66 70.0586 14H70.9586C71.0386 14.32 71.0786 14.72 71.0786 15.2C71.0786 15.66 71.0386 16.06 70.9586 16.4ZM65.4386 24.8C65.4386 24.32 65.4786 23.92 65.5586 23.6H68.5586C68.6386 23.92 68.6786 24.32 68.6786 24.8C68.6786 25.26 68.6386 25.66 68.5586 26H65.5586C65.4786 25.66 65.4386 25.26 65.4386 24.8ZM80.6903 10.4C80.6903 10.86 80.6503 11.26 80.5703 11.6H77.5703C77.4903 11.26 77.4503 10.86 77.4503 10.4C77.4503 9.92 77.4903 9.52 77.5703 9.2H80.5703C80.6503 9.52 80.6903 9.92 80.6903 10.4ZM77.5703 21.2C77.6503 21.52 77.6903 21.92 77.6903 22.4C77.6903 22.86 77.6503 23.26 77.5703 23.6H76.0703C75.9903 23.26 75.9503 22.86 75.9503 22.4C75.9503 21.92 75.9903 21.52 76.0703 21.2H75.1703C75.0903 20.86 75.0503 20.46 75.0503 20C75.0503 19.52 75.0903 19.12 75.1703 18.8C75.0903 18.46 75.0503 18.06 75.0503 17.6C75.0503 17.12 75.0903 16.72 75.1703 16.4C75.0903 16.06 75.0503 15.66 75.0503 15.2C75.0503 14.72 75.0903 14.32 75.1703 14H76.0703C75.9903 13.66 75.9503 13.26 75.9503 12.8C75.9503 12.32 75.9903 11.92 76.0703 11.6H77.5703C77.6503 11.92 77.6903 12.32 77.6903 12.8C77.6903 13.26 77.6503 13.66 77.5703 14C77.6503 14.32 77.6903 14.72 77.6903 15.2C77.6903 15.66 77.6503 16.06 77.5703 16.4C77.6503 16.72 77.6903 17.12 77.6903 17.6C77.6903 18.06 77.6503 18.46 77.5703 18.8C77.6503 19.12 77.6903 19.52 77.6903 20C77.6903 20.46 77.6503 20.86 77.5703 21.2ZM82.9703 16.4C83.0503 16.72 83.0903 17.12 83.0903 17.6C83.0903 18.06 83.0503 18.46 82.9703 18.8C83.0503 19.12 83.0903 19.52 83.0903 20C83.0903 20.46 83.0503 20.86 82.9703 21.2H82.0703C82.1503 21.52 82.1903 21.92 82.1903 22.4C82.1903 22.86 82.1503 23.26 82.0703 23.6H80.5703C80.4903 23.26 80.4503 22.86 80.4503 22.4C80.4503 21.92 80.4903 21.52 80.5703 21.2C80.4903 20.86 80.4503 20.46 80.4503 20C80.4503 19.52 80.4903 19.12 80.5703 18.8C80.4903 18.46 80.4503 18.06 80.4503 17.6C80.4503 17.12 80.4903 16.72 80.5703 16.4C80.4903 16.06 80.4503 15.66 80.4503 15.2C80.4503 14.72 80.4903 14.32 80.5703 14C80.4903 13.66 80.4503 13.26 80.4503 12.8C80.4503 12.32 80.4903 11.92 80.5703 11.6H82.0703C82.1503 11.92 82.1903 12.32 82.1903 12.8C82.1903 13.26 82.1503 13.66 82.0703 14H82.9703C83.0503 14.32 83.0903 14.72 83.0903 15.2C83.0903 15.66 83.0503 16.06 82.9703 16.4ZM77.4503 24.8C77.4503 24.32 77.4903 23.92 77.5703 23.6H80.5703C80.6503 23.92 80.6903 24.32 80.6903 24.8C80.6903 25.26 80.6503 25.66 80.5703 26H77.5703C77.4903 25.66 77.4503 25.26 77.4503 24.8ZM92.702 10.4C92.702 10.86 92.662 11.26 92.582 11.6H89.582C89.502 11.26 89.462 10.86 89.462 10.4C89.462 9.92 89.502 9.52 89.582 9.2H92.582C92.662 9.52 92.702 9.92 92.702 10.4ZM89.582 21.2C89.662 21.52 89.702 21.92 89.702 22.4C89.702 22.86 89.662 23.26 89.582 23.6H88.082C88.002 23.26 87.962 22.86 87.962 22.4C87.962 21.92 88.002 21.52 88.082 21.2H87.182C87.102 20.86 87.062 20.46 87.062 20C87.062 19.52 87.102 19.12 87.182 18.8C87.102 18.46 87.062 18.06 87.062 17.6C87.062 17.12 87.102 16.72 87.182 16.4C87.102 16.06 87.062 15.66 87.062 15.2C87.062 14.72 87.102 14.32 87.182 14H88.082C88.002 13.66 87.962 13.26 87.962 12.8C87.962 12.32 88.002 11.92 88.082 11.6H89.582C89.662 11.92 89.702 12.32 89.702 12.8C89.702 13.26 89.662 13.66 89.582 14C89.662 14.32 89.702 14.72 89.702 15.2C89.702 15.66 89.662 16.06 89.582 16.4C89.662 16.72 89.702 17.12 89.702 17.6C89.702 18.06 89.662 18.46 89.582 18.8C89.662 19.12 89.702 19.52 89.702 20C89.702 20.46 89.662 20.86 89.582 21.2ZM94.982 16.4C95.062 16.72 95.102 17.12 95.102 17.6C95.102 18.06 95.062 18.46 94.982 18.8C95.062 19.12 95.102 19.52 95.102 20C95.102 20.46 95.062 20.86 94.982 21.2H94.082C94.162 21.52 94.202 21.92 94.202 22.4C94.202 22.86 94.162 23.26 94.082 23.6H92.582C92.502 23.26 92.462 22.86 92.462 22.4C92.462 21.92 92.502 21.52 92.582 21.2C92.502 20.86 92.462 20.46 92.462 20C92.462 19.52 92.502 19.12 92.582 18.8C92.502 18.46 92.462 18.06 92.462 17.6C92.462 17.12 92.502 16.72 92.582 16.4C92.502 16.06 92.462 15.66 92.462 15.2C92.462 14.72 92.502 14.32 92.582 14C92.502 13.66 92.462 13.26 92.462 12.8C92.462 12.32 92.502 11.92 92.582 11.6H94.082C94.162 11.92 94.202 12.32 94.202 12.8C94.202 13.26 94.162 13.66 94.082 14H94.982C95.062 14.32 95.102 14.72 95.102 15.2C95.102 15.66 95.062 16.06 94.982 16.4ZM89.462 24.8C89.462 24.32 89.502 23.92 89.582 23.6H92.582C92.662 23.92 92.702 24.32 92.702 24.8C92.702 25.26 92.662 25.66 92.582 26H89.582C89.502 25.66 89.462 25.26 89.462 24.8Z" fill="black"/>
<path d="M10.92 8.4C10.92 8.86 10.88 9.26 10.8 9.6H7.2C7.28 9.92 7.32 10.32 7.32 10.8C7.32 11.26 7.28 11.66 7.2 12C7.28 12.32 7.32 12.72 7.32 13.2C7.32 13.66 7.28 14.06 7.2 14.4C7.28 14.72 7.32 15.12 7.32 15.6C7.32 16.06 7.28 16.46 7.2 16.8C7.28 17.12 7.32 17.52 7.32 18C7.32 18.46 7.28 18.86 7.2 19.2C7.28 19.52 7.32 19.92 7.32 20.4C7.32 20.86 7.28 21.26 7.2 21.6C7.28 21.92 7.32 22.32 7.32 22.8C7.32 23.26 7.28 23.66 7.2 24H4.8C4.72 23.66 4.68 23.26 4.68 22.8C4.68 22.32 4.72 21.92 4.8 21.6C4.72 21.26 4.68 20.86 4.68 20.4C4.68 19.92 4.72 19.52 4.8 19.2C4.72 18.86 4.68 18.46 4.68 18C4.68 17.52 4.72 17.12 4.8 16.8C4.72 16.46 4.68 16.06 4.68 15.6C4.68 15.12 4.72 14.72 4.8 14.4C4.72 14.06 4.68 13.66 4.68 13.2C4.68 12.72 4.72 12.32 4.8 12C4.72 11.66 4.68 11.26 4.68 10.8C4.68 10.32 4.72 9.92 4.8 9.6H1.2C1.12 9.26 1.08 8.86 1.08 8.4C1.08 7.92 1.12 7.52 1.2 7.2H10.8C10.88 7.52 10.92 7.92 10.92 8.4ZM16.8117 9.6C16.7317 9.26 16.6917 8.86 16.6917 8.4C16.6917 7.92 16.7317 7.52 16.8117 7.2H19.2117C19.2917 7.52 19.3317 7.92 19.3317 8.4C19.3317 8.86 19.2917 9.26 19.2117 9.6H16.8117ZM21.6117 21.6C21.6917 21.92 21.7317 22.32 21.7317 22.8C21.7317 23.26 21.6917 23.66 21.6117 24H14.4117C14.3317 23.66 14.2917 23.26 14.2917 22.8C14.2917 22.32 14.3317 21.92 14.4117 21.6H16.8117C16.7317 21.26 16.6917 20.86 16.6917 20.4C16.6917 19.92 16.7317 19.52 16.8117 19.2C16.7317 18.86 16.6917 18.46 16.6917 18C16.6917 17.52 16.7317 17.12 16.8117 16.8C16.7317 16.46 16.6917 16.06 16.6917 15.6C16.6917 15.12 16.7317 14.72 16.8117 14.4H15.0117C14.9317 14.06 14.8917 13.66 14.8917 13.2C14.8917 12.72 14.9317 12.32 15.0117 12H19.2117C19.2917 12.32 19.3317 12.72 19.3317 13.2C19.3317 13.66 19.2917 14.06 19.2117 14.4C19.2917 14.72 19.3317 15.12 19.3317 15.6C19.3317 16.06 19.2917 16.46 19.2117 16.8C19.2917 17.12 19.3317 17.52 19.3317 18C19.3317 18.46 19.2917 18.86 19.2117 19.2C19.2917 19.52 19.3317 19.92 19.3317 20.4C19.3317 20.86 19.2917 21.26 19.2117 21.6H21.6117ZM26.8434 13.2C26.8434 13.66 26.8034 14.06 26.7234 14.4H27.6234C27.7034 14.72 27.7434 15.12 27.7434 15.6C27.7434 16.06 27.7034 16.46 27.6234 16.8C27.7034 17.12 27.7434 17.52 27.7434 18C27.7434 18.46 27.7034 18.86 27.6234 19.2C27.7034 19.52 27.7434 19.92 27.7434 20.4C27.7434 20.86 27.7034 21.26 27.6234 21.6C27.7034 21.92 27.7434 22.32 27.7434 22.8C27.7434 23.26 27.7034 23.66 27.6234 24H25.2234C25.1434 23.66 25.1034 23.26 25.1034 22.8C25.1034 22.32 25.1434 21.92 25.2234 21.6C25.1434 21.26 25.1034 20.86 25.1034 20.4C25.1034 19.92 25.1434 19.52 25.2234 19.2C25.1434 18.86 25.1034 18.46 25.1034 18C25.1034 17.52 25.1434 17.12 25.2234 16.8C25.1434 16.46 25.1034 16.06 25.1034 15.6C25.1034 15.12 25.1434 14.72 25.2234 14.4C25.1434 14.06 25.1034 13.66 25.1034 13.2C25.1034 12.72 25.1434 12.32 25.2234 12H26.7234C26.8034 12.32 26.8434 12.72 26.8434 13.2ZM30.1434 13.2C30.1434 13.66 30.1034 14.06 30.0234 14.4H30.9234C31.0034 14.72 31.0434 15.12 31.0434 15.6C31.0434 16.06 31.0034 16.46 30.9234 16.8C31.0034 17.12 31.0434 17.52 31.0434 18C31.0434 18.46 31.0034 18.86 30.9234 19.2C31.0034 19.52 31.0434 19.92 31.0434 20.4C31.0434 20.86 31.0034 21.26 30.9234 21.6C31.0034 21.92 31.0434 22.32 31.0434 22.8C31.0434 23.26 31.0034 23.66 30.9234 24H29.1234C29.0434 23.66 29.0034 23.26 29.0034 22.8C29.0034 22.32 29.0434 21.92 29.1234 21.6C29.0434 21.26 29.0034 20.86 29.0034 20.4C29.0034 19.92 29.0434 19.52 29.1234 19.2C29.0434 18.86 29.0034 18.46 29.0034 18C29.0034 17.52 29.0434 17.12 29.1234 16.8C29.0434 16.46 29.0034 16.06 29.0034 15.6C29.0034 15.12 29.0434 14.72 29.1234 14.4H27.6234C27.5434 14.06 27.5034 13.66 27.5034 13.2C27.5034 12.72 27.5434 12.32 27.6234 12H30.0234C30.1034 12.32 30.1434 12.72 30.1434 13.2ZM34.8234 16.8C34.9034 17.12 34.9434 17.52 34.9434 18C34.9434 18.46 34.9034 18.86 34.8234 19.2C34.9034 19.52 34.9434 19.92 34.9434 20.4C34.9434 20.86 34.9034 21.26 34.8234 21.6C34.9034 21.92 34.9434 22.32 34.9434 22.8C34.9434 23.26 34.9034 23.66 34.8234 24H32.4234C32.3434 23.66 32.3034 23.26 32.3034 22.8C32.3034 22.32 32.3434 21.92 32.4234 21.6C32.3434 21.26 32.3034 20.86 32.3034 20.4C32.3034 19.92 32.3434 19.52 32.4234 19.2C32.3434 18.86 32.3034 18.46 32.3034 18C32.3034 17.52 32.3434 17.12 32.4234 16.8C32.3434 16.46 32.3034 16.06 32.3034 15.6C32.3034 15.12 32.3434 14.72 32.4234 14.4H30.9234C30.8434 14.06 30.8034 13.66 30.8034 13.2C30.8034 12.72 30.8434 12.32 30.9234 12H33.6234C33.7034 12.32 33.7434 12.72 33.7434 13.2C33.7434 13.66 33.7034 14.06 33.6234 14.4H34.8234C34.9034 14.72 34.9434 15.12 34.9434 15.6C34.9434 16.06 34.9034 16.46 34.8234 16.8ZM46.9552 15.6C46.9552 16.06 46.9152 16.46 46.8352 16.8C46.9152 17.12 46.9552 17.52 46.9552 18C46.9552 18.46 46.9152 18.86 46.8352 19.2H40.5352C40.6152 19.52 40.6552 19.92 40.6552 20.4C40.6552 20.86 40.6152 21.26 40.5352 21.6H45.6352C45.7152 21.92 45.7552 22.32 45.7552 22.8C45.7552 23.26 45.7152 23.66 45.6352 24H39.6352C39.5552 23.66 39.5152 23.26 39.5152 22.8C39.5152 22.32 39.5552 21.92 39.6352 21.6H38.1352C38.0552 21.26 38.0152 20.86 38.0152 20.4C38.0152 19.92 38.0552 19.52 38.1352 19.2H37.2352C37.1552 18.86 37.1152 18.46 37.1152 18C37.1152 17.52 37.1552 17.12 37.2352 16.8H38.1352C38.0552 16.46 38.0152 16.06 38.0152 15.6C38.0152 15.12 38.0552 14.72 38.1352 14.4H39.6352C39.5552 14.06 39.5152 13.66 39.5152 13.2C39.5152 12.72 39.5552 12.32 39.6352 12H45.6352C45.7152 12.32 45.7552 12.72 45.7552 13.2C45.7552 13.66 45.7152 14.06 45.6352 14.4H46.8352C46.9152 14.72 46.9552 15.12 46.9552 15.6ZM44.4352 16.8C44.3552 16.46 44.3152 16.06 44.3152 15.6C44.3152 15.12 44.3552 14.72 44.4352 14.4H40.5352C40.6152 14.72 40.6552 15.12 40.6552 15.6C40.6552 16.06 40.6152 16.46 40.5352 16.8H44.4352ZM67.6786 8.4C67.6786 8.86 67.6386 9.26 67.5586 9.6H64.5586C64.4786 9.26 64.4386 8.86 64.4386 8.4C64.4386 7.92 64.4786 7.52 64.5586 7.2H67.5586C67.6386 7.52 67.6786 7.92 67.6786 8.4ZM64.5586 19.2C64.6386 19.52 64.6786 19.92 64.6786 20.4C64.6786 20.86 64.6386 21.26 64.5586 21.6H63.0586C62.9786 21.26 62.9386 20.86 62.9386 20.4C62.9386 19.92 62.9786 19.52 63.0586 19.2H62.1586C62.0786 18.86 62.0386 18.46 62.0386 18C62.0386 17.52 62.0786 17.12 62.1586 16.8C62.0786 16.46 62.0386 16.06 62.0386 15.6C62.0386 15.12 62.0786 14.72 62.1586 14.4C62.0786 14.06 62.0386 13.66 62.0386 13.2C62.0386 12.72 62.0786 12.32 62.1586 12H63.0586C62.9786 11.66 62.9386 11.26 62.9386 10.8C62.9386 10.32 62.9786 9.92 63.0586 9.6H64.5586C64.6386 9.92 64.6786 10.32 64.6786 10.8C64.6786 11.26 64.6386 11.66 64.5586 12C64.6386 12.32 64.6786 12.72 64.6786 13.2C64.6786 13.66 64.6386 14.06 64.5586 14.4C64.6386 14.72 64.6786 15.12 64.6786 15.6C64.6786 16.06 64.6386 16.46 64.5586 16.8C64.6386 17.12 64.6786 17.52 64.6786 18C64.6786 18.46 64.6386 18.86 64.5586 19.2ZM69.9586 14.4C70.0386 14.72 70.0786 15.12 70.0786 15.6C70.0786 16.06 70.0386 16.46 69.9586 16.8C70.0386 17.12 70.0786 17.52 70.0786 18C70.0786 18.46 70.0386 18.86 69.9586 19.2H69.0586C69.1386 19.52 69.1786 19.92 69.1786 20.4C69.1786 20.86 69.1386 21.26 69.0586 21.6H67.5586C67.4786 21.26 67.4386 20.86 67.4386 20.4C67.4386 19.92 67.4786 19.52 67.5586 19.2C67.4786 18.86 67.4386 18.46 67.4386 18C67.4386 17.52 67.4786 17.12 67.5586 16.8C67.4786 16.46 67.4386 16.06 67.4386 15.6C67.4386 15.12 67.4786 14.72 67.5586 14.4C67.4786 14.06 67.4386 13.66 67.4386 13.2C67.4386 12.72 67.4786 12.32 67.5586 12C67.4786 11.66 67.4386 11.26 67.4386 10.8C67.4386 10.32 67.4786 9.92 67.5586 9.6H69.0586C69.1386 9.92 69.1786 10.32 69.1786 10.8C69.1786 11.26 69.1386 11.66 69.0586 12H69.9586C70.0386 12.32 70.0786 12.72 70.0786 13.2C70.0786 13.66 70.0386 14.06 69.9586 14.4ZM64.4386 22.8C64.4386 22.32 64.4786 21.92 64.5586 21.6H67.5586C67.6386 21.92 67.6786 22.32 67.6786 22.8C67.6786 23.26 67.6386 23.66 67.5586 24H64.5586C64.4786 23.66 64.4386 23.26 64.4386 22.8ZM79.6903 8.4C79.6903 8.86 79.6503 9.26 79.5703 9.6H76.5703C76.4903 9.26 76.4503 8.86 76.4503 8.4C76.4503 7.92 76.4903 7.52 76.5703 7.2H79.5703C79.6503 7.52 79.6903 7.92 79.6903 8.4ZM76.5703 19.2C76.6503 19.52 76.6903 19.92 76.6903 20.4C76.6903 20.86 76.6503 21.26 76.5703 21.6H75.0703C74.9903 21.26 74.9503 20.86 74.9503 20.4C74.9503 19.92 74.9903 19.52 75.0703 19.2H74.1703C74.0903 18.86 74.0503 18.46 74.0503 18C74.0503 17.52 74.0903 17.12 74.1703 16.8C74.0903 16.46 74.0503 16.06 74.0503 15.6C74.0503 15.12 74.0903 14.72 74.1703 14.4C74.0903 14.06 74.0503 13.66 74.0503 13.2C74.0503 12.72 74.0903 12.32 74.1703 12H75.0703C74.9903 11.66 74.9503 11.26 74.9503 10.8C74.9503 10.32 74.9903 9.92 75.0703 9.6H76.5703C76.6503 9.92 76.6903 10.32 76.6903 10.8C76.6903 11.26 76.6503 11.66 76.5703 12C76.6503 12.32 76.6903 12.72 76.6903 13.2C76.6903 13.66 76.6503 14.06 76.5703 14.4C76.6503 14.72 76.6903 15.12 76.6903 15.6C76.6903 16.06 76.6503 16.46 76.5703 16.8C76.6503 17.12 76.6903 17.52 76.6903 18C76.6903 18.46 76.6503 18.86 76.5703 19.2ZM81.9703 14.4C82.0503 14.72 82.0903 15.12 82.0903 15.6C82.0903 16.06 82.0503 16.46 81.9703 16.8C82.0503 17.12 82.0903 17.52 82.0903 18C82.0903 18.46 82.0503 18.86 81.9703 19.2H81.0703C81.1503 19.52 81.1903 19.92 81.1903 20.4C81.1903 20.86 81.1503 21.26 81.0703 21.6H79.5703C79.4903 21.26 79.4503 20.86 79.4503 20.4C79.4503 19.92 79.4903 19.52 79.5703 19.2C79.4903 18.86 79.4503 18.46 79.4503 18C79.4503 17.52 79.4903 17.12 79.5703 16.8C79.4903 16.46 79.4503 16.06 79.4503 15.6C79.4503 15.12 79.4903 14.72 79.5703 14.4C79.4903 14.06 79.4503 13.66 79.4503 13.2C79.4503 12.72 79.4903 12.32 79.5703 12C79.4903 11.66 79.4503 11.26 79.4503 10.8C79.4503 10.32 79.4903 9.92 79.5703 9.6H81.0703C81.1503 9.92 81.1903 10.32 81.1903 10.8C81.1903 11.26 81.1503 11.66 81.0703 12H81.9703C82.0503 12.32 82.0903 12.72 82.0903 13.2C82.0903 13.66 82.0503 14.06 81.9703 14.4ZM76.4503 22.8C76.4503 22.32 76.4903 21.92 76.5703 21.6H79.5703C79.6503 21.92 79.6903 22.32 79.6903 22.8C79.6903 23.26 79.6503 23.66 79.5703 24H76.5703C76.4903 23.66 76.4503 23.26 76.4503 22.8ZM91.702 8.4C91.702 8.86 91.662 9.26 91.582 9.6H88.582C88.502 9.26 88.462 8.86 88.462 8.4C88.462 7.92 88.502 7.52 88.582 7.2H91.582C91.662 7.52 91.702 7.92 91.702 8.4ZM88.582 19.2C88.662 19.52 88.702 19.92 88.702 20.4C88.702 20.86 88.662 21.26 88.582 21.6H87.082C87.002 21.26 86.962 20.86 86.962 20.4C86.962 19.92 87.002 19.52 87.082 19.2H86.182C86.102 18.86 86.062 18.46 86.062 18C86.062 17.52 86.102 17.12 86.182 16.8C86.102 16.46 86.062 16.06 86.062 15.6C86.062 15.12 86.102 14.72 86.182 14.4C86.102 14.06 86.062 13.66 86.062 13.2C86.062 12.72 86.102 12.32 86.182 12H87.082C87.002 11.66 86.962 11.26 86.962 10.8C86.962 10.32 87.002 9.92 87.082 9.6H88.582C88.662 9.92 88.702 10.32 88.702 10.8C88.702 11.26 88.662 11.66 88.582 12C88.662 12.32 88.702 12.72 88.702 13.2C88.702 13.66 88.662 14.06 88.582 14.4C88.662 14.72 88.702 15.12 88.702 15.6C88.702 16.06 88.662 16.46 88.582 16.8C88.662 17.12 88.702 17.52 88.702 18C88.702 18.46 88.662 18.86 88.582 19.2ZM93.982 14.4C94.062 14.72 94.102 15.12 94.102 15.6C94.102 16.06 94.062 16.46 93.982 16.8C94.062 17.12 94.102 17.52 94.102 18C94.102 18.46 94.062 18.86 93.982 19.2H93.082C93.162 19.52 93.202 19.92 93.202 20.4C93.202 20.86 93.162 21.26 93.082 21.6H91.582C91.502 21.26 91.462 20.86 91.462 20.4C91.462 19.92 91.502 19.52 91.582 19.2C91.502 18.86 91.462 18.46 91.462 18C91.462 17.52 91.502 17.12 91.582 16.8C91.502 16.46 91.462 16.06 91.462 15.6C91.462 15.12 91.502 14.72 91.582 14.4C91.502 14.06 91.462 13.66 91.462 13.2C91.462 12.72 91.502 12.32 91.582 12C91.502 11.66 91.462 11.26 91.462 10.8C91.462 10.32 91.502 9.92 91.582 9.6H93.082C93.162 9.92 93.202 10.32 93.202 10.8C93.202 11.26 93.162 11.66 93.082 12H93.982C94.062 12.32 94.102 12.72 94.102 13.2C94.102 13.66 94.062 14.06 93.982 14.4ZM88.462 22.8C88.462 22.32 88.502 21.92 88.582 21.6H91.582C91.662 21.92 91.702 22.32 91.702 22.8C91.702 23.26 91.662 23.66 91.582 24H88.582C88.502 23.66 88.462 23.26 88.462 22.8Z" fill="white"/>
</svg>
